<?xml version="1.0" encoding="utf-8"?>
<!-- Generator: Adobe Illustrator 22.0.0, SVG Export Plug-In . SVG Version: 6.00 Build 0)  -->
<svg version="1.1" id="Calque_1" xmlns="http://www.w3.org/2000/svg" xmlns:xlink="http://www.w3.org/1999/xlink" x="0px" y="0px"
	 viewBox="0 0 500 500" style="enable-background:new 0 0 500 500;" xml:space="preserve">
<style type="text/css">
	.st0{fill:none;}
	.st1{fill:url(#SVGID_1_);}
	.st2{fill:url(#SVGID_2_);}
</style>
<g>
	<path class="st0" d="M339.5,315.3c0-24.5-9.8-46.8-25.8-63c-16.3-16.6-39-26.9-64.1-26.9c-49.7,0-89.9,40.3-89.9,89.9
		c0,29.3,14,55.3,35.7,71.7c15.1,11.4,33.9,18.2,54.3,18.2C299.2,405.2,339.5,364.9,339.5,315.3z"/>
	<linearGradient id="SVGID_1_" gradientUnits="userSpaceOnUse" x1="215.2155" y1="494.091" x2="428.4012" y2="280.9054">
		<stop  offset="0" style="stop-color:#96CDF1"/>
		<stop  offset="0.2234" style="stop-color:#9ACCF0"/>
		<stop  offset="0.4238" style="stop-color:#A4CAED"/>
		<stop  offset="0.6154" style="stop-color:#B7C6E7"/>
		<stop  offset="0.8016" style="stop-color:#D0C1E0"/>
		<stop  offset="0.9823" style="stop-color:#F1BAD6"/>
		<stop  offset="1" style="stop-color:#F5B9D5"/>
	</linearGradient>
	<path class="st1" d="M387.1,253.5c1.6,9.6,2.5,19.4,2.5,29.5c0,97.6-79.1,176.8-176.8,176.8c-2.3,0-4.6-0.1-6.8-0.1
		c13.8,4.2,28.4,6.4,43.6,6.4c83.3,0,150.7-67.5,150.7-150.7C400.3,293.2,395.6,272.3,387.1,253.5z"/>
	<linearGradient id="SVGID_2_" gradientUnits="userSpaceOnUse" x1="114.2777" y1="434.427" x2="364.264" y2="184.4407">
		<stop  offset="0" style="stop-color:#97D5F4"/>
		<stop  offset="0.1921" style="stop-color:#9BD5F3"/>
		<stop  offset="0.4" style="stop-color:#A8D4F1"/>
		<stop  offset="0.6154" style="stop-color:#BED2ED"/>
		<stop  offset="0.8345" style="stop-color:#DCD0E8"/>
		<stop  offset="1" style="stop-color:#F8CEE3"/>
	</linearGradient>
	<path class="st2" d="M389.6,283c0-10-0.9-19.9-2.5-29.5c-23.6-52.5-76.3-89-137.5-89c-0.8,0-1.6,0-2.4,0
		c-4.9,13.4-17.7,22.9-32.8,22.9c-9.8,0-18.6-4-24.9-10.5c-5.6,2.4-10.9,5.1-16.1,8.2c-27.8,16.3-49.9,41.3-62.6,71.1
		c-7.7,18.1-12,38-12,58.9c0,68.1,45.2,125.6,107.2,144.3c2.3,0.1,4.5,0.1,6.8,0.1C310.4,459.7,389.6,380.6,389.6,283z M195.3,386.9
		c-21.7-16.4-35.7-42.4-35.7-71.7c0-49.7,40.3-89.9,89.9-89.9c25.1,0,47.8,10.3,64.1,26.9c16,16.2,25.8,38.5,25.8,63
		c0,49.7-40.3,89.9-89.9,89.9C229.2,405.2,210.4,398.4,195.3,386.9z"/>
</g>
</svg>
