<svg xmlns="http://www.w3.org/2000/svg" viewBox="0 0 206.5 206.5"><path d="M177.9 1.1H28.6C13.4 1.1 1.1 13.4 1.1 28.6v149.3c0 15.2 12.3 27.5 27.5 27.5h73.6l.1-73h-19a4.48 4.48 0 0 1-4.5-4.5l-.1-23.5a4.48 4.48 0 0 1 4.5-4.5h18.9V77.2c0-26.4 16.1-40.8 39.7-40.8h19.3a4.48 4.48 0 0 1 4.5 4.5v19.9a4.48 4.48 0 0 1-4.5 4.5h-11.9c-12.8 0-15.3 6.1-15.3 15V100H162c2.7 0 4.8 2.3 4.4 5l-2.8 23.5c-.3 2.3-2.2 4-4.4 4H134l-.1 73h43.8c15.2 0 27.5-12.3 27.5-27.5V28.6c.3-15.2-12.1-27.5-27.3-27.5z" fill="#475993"/></svg>