<svg xmlns="http://www.w3.org/2000/svg" viewBox="0 0 216.3 213.7"><style><![CDATA[.A{display:none}.B{display:inline}.C{fill:#5b2c5b}.E{fill:none;stroke:#5b2c5b;stroke-width:4;stroke-linecap:round;stroke-miterlimit:10}]]></style><path class="C" d="M108.7 6.8c-55.2 0-100 44.8-100 100s44.8 100 100 100 100-44.8 100-100c0-55.3-44.8-100-100-100zm0 191.9c-50.8 0-92-41.2-92-92s41.2-92 92-92 92 41.2 92 92-41.2 92-92 92zm43.1-73.6c-6.4-6.1-14.9-2-17.1 0-2.1 2-17.1 4.1-25.6 4.1s-23.5-2-25.6-4.1c-2.1-2-10.7-6.1-17.1 0S30.1 151.7 47.2 164s42.7 28.7 61.8 28.7 44.8-16.4 61.8-28.7c17.2-12.2-12.6-32.7-19-38.9z"/><ellipse cx="108.7" cy="72.9" rx="31.2" ry="45.1" fill="none" stroke="#5b2c5b" stroke-width="2"/><path class="C" d="M140.4 71.8s-13-10-13-19.4c0 0-18.9 18.9-49.5 23.6 0 0-1.2-47.7 30.7-47.9 30.7-.3 31.8 43.7 31.8 43.7zM78.6 85c-.7-7.5-7.8 21.7-14 25.8-6.1 4.1-6.1 8.2 0 6.1 6.1-2 8.2-4.1 14.3 0s18.4 6.1 20.5 4.1 2.5-4.1 2.5-4.1S80.7 108 78.6 85zm59.9 1.1s4 14.5 10.1 20.6 10.2 12.3 2 10.2c-8.2-2-12.3-6.1-16.4-4.1S124 121 119.9 121s-3.8-4.4-3.8-4.4 18.1-5.9 22.2-30.5"/></svg>