<svg xmlns="http://www.w3.org/2000/svg" viewBox="0 0 216.3 213.7"><style><![CDATA[.A{display:none}.B{display:inline}.C{fill:#5b2c5b}.E{fill:none;stroke:#5b2c5b;stroke-width:4;stroke-linecap:round;stroke-miterlimit:10}]]></style><path class="C" d="M108.7 6.8c-55.2 0-100 44.8-100 100s44.8 100 100 100 100-44.8 100-100c0-55.3-44.8-100-100-100zm0 191.9c-50.8 0-92-41.2-92-92s41.2-92 92-92 92 41.2 92 92-41.2 92-92 92z"/><circle class="C" cx="60.7" cy="61.8" r="13"/><path class="C" d="M74.7 82.8l-14 14-14-14h-6v36l10 16v25.9h20v-25.9l8-12.8V82.8z"/><circle class="C" cx="156.7" cy="61.8" r="13"/><path class="C" d="M170.7 82.8l-14 14-14-14h-4V122l8 12.8v25.9h20v-25.9l10-16v-36z"/><circle class="C" cx="108.7" cy="49.8" r="21"/><path class="C" d="M136.7 82.8h-7l-21 19-21-19h-7v46l13 24.6v35.3h30v-35.3l13-24.6z"/></svg>