<svg xmlns="http://www.w3.org/2000/svg" viewBox="0 0 216.3 213.7"><style><![CDATA[.A{fill:#5b2c5b}.B{display:none}.C{display:inline}.D{fill:none;stroke:#5b2c5b;stroke-width:4;stroke-linecap:round;stroke-miterlimit:10}]]></style><path class="A" d="M108.7 6.8c-55.2 0-100 44.8-100 100s44.8 100 100 100 100-44.8 100-100c0-55.3-44.8-100-100-100zm0 191.9c-50.8 0-92-41.2-92-92s41.2-92 92-92 92 41.2 92 92-41.2 92-92 92zm59.6-123.5v90.4h-39.1v-45.2s-4.1-16.4-20.6-16.4-18.5 18.5-18.5 18.5v43.2h-39V75.2H33.5c-.8 0-1.1-1.1-.4-1.5L108.7 28l75.6 45.7c.7.4.4 1.5-.4 1.5h-15.6z"/></svg>