<svg xmlns="http://www.w3.org/2000/svg" viewBox="0 0 216.3 213.7"><style><![CDATA[.A{display:none}.B{display:inline}.C{fill:#5b2c5b}.E{fill:none;stroke:#5b2c5b;stroke-width:4;stroke-linecap:round;stroke-miterlimit:10}]]></style><path class="C" d="M108.7 6.8c-55.2 0-100 44.8-100 100s44.8 100 100 100 100-44.8 100-100c0-55.3-44.8-100-100-100zm0 191.9c-50.8 0-92-41.2-92-92s41.2-92 92-92 92 41.2 92 92-41.2 92-92 92zM78.3 143h-9.9l-8.1-29.8H47.1V143h-9.4V70.6h22.6c6.3 0 10.9 2 13.9 5.9s4.4 9 4.4 15.3c0 9.3-3.1 15.7-9.4 19.2l9.1 32zm-31.2-40.2h11.7c3.4 0 5.9-1 7.6-3s2.5-4.7 2.5-8.2c0-3.2-.8-5.8-2.4-7.7-1.6-2-3.9-2.9-6.8-2.9H47.1v21.8zm78.5 40.2h-10l-4.2-17.2H91.3L87.2 143h-8l17.3-72.4h11.6l17.5 72.4zm-16.8-27.7L101.2 83l-7.6 32.3h15.2zm70.9 27.7h-9.6V79.6L155.7 143h-4.9l-14.5-63.4V143h-7.7V70.6h14.7l10.9 46.6 10.7-46.6h14.8V143z"/></svg>