<svg xmlns="http://www.w3.org/2000/svg" viewBox="0 0 216.3 213.7"><style><![CDATA[.A{display:none}.B{display:inline}.C{fill:#5b2c5b}.E{fill:none;stroke:#5b2c5b;stroke-width:4;stroke-linecap:round;stroke-miterlimit:10}]]></style><path class="C" d="M108.7 6.8c-55.2 0-100 44.8-100 100s44.8 100 100 100 100-44.8 100-100c0-55.3-44.8-100-100-100zm0 191.9c-50.8 0-92-41.2-92-92s41.2-92 92-92 92 41.2 92 92-41.2 92-92 92zm63.3-85.9c-.3-3.6-1.2-7-2.5-10.2 3.5-3.1 13.4-12.7 8.7-17.4-4.4-4.4-15 .7-18.6 3.8-2.8-2.4-5.9-4.3-9.3-5.8.3-5.1.2-17.9-6.1-17.9-6 0-9.7 10-10.4 15.1-4 .3-7.8 1.1-11.3 2.6-3.8-4.1-12.1-12-16.4-7.7-4 4-.1 13.1 2.9 17.5-2.6 3-4.8 6.5-6.3 10.4-5.7-.2-16.5.3-16.5 6.2 0 5.6 8.9 9.3 14.2 10.2.4 4.2 1.5 8.1 3.2 11.8-4.2 3.9-11.5 11.9-7.3 16.1 4.1 4.1 13.3.1 17.6-3 3.1 2.4 6.5 4.4 10.3 5.7-.2 5.5.1 17.2 6.2 17.2 6 0 9.8-10.3 10.4-15.3 3.8-.5 7.3-1.5 10.7-3 3.4 3.8 12.5 12.9 17 8.4s-.8-15.2-3.9-18.7c2.2-2.8 4-5.9 5.3-9.2 4.6.3 18.5.5 18.5-6.1-.2-6.7-11.8-10.5-16.4-10.7zm-57.8 3.5c0-12.1 9.8-22 22-22s22 9.8 22 22-9.8 22-22 22-22-9.9-22-22z"/><path class="E" d="M146.2 171.2h-86m-12-10l12 10m-12-113.9v103.9m12-119.9l-12 16"/><path class="E" d="M152.2 41.3h-92m102 12l-10-12m10 22v-10m-98 14h66m-66 20h34m-34 16h16m-16 20h26m-26 20h22"/></svg>