<?xml version="1.0" encoding="utf-8"?>
<!-- Generator: Adobe Illustrator 22.0.0, SVG Export Plug-In . SVG Version: 6.00 Build 0)  -->
<svg version="1.1" id="Calque_1" xmlns="http://www.w3.org/2000/svg" xmlns:xlink="http://www.w3.org/1999/xlink" x="0px" y="0px"
	 viewBox="0 0 196 118" style="enable-background:new 0 0 196 118;" xml:space="preserve">
<style type="text/css">
	.st0{display:none;fill:#FFFFFF;stroke:#000000;stroke-width:4;stroke-linecap:round;stroke-miterlimit:10;}
	.st1{display:none;fill:none;stroke:#000000;stroke-width:4;stroke-linecap:round;stroke-miterlimit:10;}
	.st2{fill:#202020;}
</style>
<path class="st0" d="M5.5,11.5c22,1,142,3,164,97"/>
<line class="st1" x1="170" y1="109" x2="188" y2="77"/>
<line class="st1" x1="133" y1="91" x2="170" y2="109"/>
<g>
	<g>
		<g>
			<g>
				<g>
					<path class="st2" d="M7.4,10.8C7.6,11,8,11.4,8.4,10.9c-0.1-0.3-0.2-0.7-0.3-1C7.9,10.1,7.6,10.4,7.4,10.8z"/>
					<path class="st2" d="M10.8,11c0.2-0.6,0.6-1.4,0.2-2.3c-0.2,1-0.4,0.6-0.6,1.8c-0.3,0.2-0.7-0.1-0.7-0.5c0,0.1-0.2,0.1-0.3,0.2
						C9.1,10.3,9,10.4,9,10.7c0.8,0.4,1.2,0.4,1.6-0.4C10.8,10.5,10.7,10.8,10.8,11z"/>
					<path class="st2" d="M39.1,15.7l-0.2-0.2C39,15.7,39,15.7,39.1,15.7z"/>
					<path class="st2" d="M56.4,20.1c-0.1,0-0.2,0.1-0.2,0.2C56.3,20.2,56.4,20.2,56.4,20.1z"/>
					<path class="st2" d="M59.1,21.8c-0.1,0-0.1-0.1-0.2-0.1C59,21.8,59.1,21.9,59.1,21.8z"/>
					<path class="st2" d="M39.1,15.7l0.4,0.4C39.6,15.8,39.3,15.9,39.1,15.7z"/>
					<path class="st2" d="M14.8,8.3c-0.1,0-0.2,0.1-0.3,0.3c0.1,0,0.2-0.1,0.3-0.1C14.8,8.4,14.8,8.4,14.8,8.3z"/>
					<path class="st2" d="M31.2,15.1l-0.1,0c-0.1,0.1-0.1,0.2-0.2,0.4L31.2,15.1z"/>
					<path class="st2" d="M25.3,14.3c0.1,0.1,0.3-0.8,0.4-1.1c-0.1,0.3-0.3,0.5-0.4,0.5C25.3,13.8,25.3,14,25.3,14.3z"/>
					<path class="st2" d="M16.1,11.8l-0.2,0.1C15.9,11.9,16,11.8,16.1,11.8z"/>
					<path class="st2" d="M35.4,16c0,0.1,0,0.2,0,0.3C35.5,16.2,35.5,16.1,35.4,16z"/>
					<path class="st2" d="M172.4,100.6c-0.1,0-0.1,0-0.1,0C172.3,100.7,172.4,100.7,172.4,100.6z"/>
					<path class="st2" d="M169.5,108.4L169.5,108.4c-0.2-0.1-0.4-0.1-0.5,0L169.5,108.4z"/>
					<path class="st2" d="M64.3,24.2C64.3,24.2,64.3,24.2,64.3,24.2C64.1,24.2,64.2,24.2,64.3,24.2z"/>
					<path class="st2" d="M111.5,41.3c-0.2-0.9,1.3-0.4,0.9-1.6C112.3,40,111.1,40.5,111.5,41.3z"/>
					<path class="st2" d="M15,8.4c0.1,0,0.2,0,0.3,0C15.1,8.4,15,8.4,15,8.4z"/>
					<path class="st2" d="M112.4,39.7L112.4,39.7l0-0.1C112.4,39.6,112.4,39.7,112.4,39.7z"/>
					<path class="st2" d="M76.8,26.9c0-0.2,0-0.3,0-0.4C76.7,26.6,76.7,26.7,76.8,26.9z"/>
					<path class="st2" d="M67.9,23.3l0.2,0.2C68,23.4,67.9,23.4,67.9,23.3z"/>
					<path class="st2" d="M81.9,27.1c0.1,0.1,0.1,0.2,0.3,0.2c0,0,0-0.1,0-0.1C82.1,27.2,82,27.3,81.9,27.1z"/>
					<path class="st2" d="M86.8,28.6c0-0.1,0-0.1,0-0.2c-0.1,0-0.1,0-0.2,0L86.8,28.6z"/>
					<path class="st2" d="M167.1,85.1c-0.2,0.2-0.4,0.4-0.6,0.5C167,85.3,167.5,85.9,167.1,85.1z"/>
					<path class="st2" d="M14.8,8.8c0-0.2,0.1-0.3,0.2-0.4c-0.1,0-0.1,0-0.2,0C14.8,8.6,14.8,8.7,14.8,8.8z"/>
					<path class="st2" d="M83.9,20.8l0.8,0.4C84.5,21,84.2,20.9,83.9,20.8z"/>
					<path class="st2" d="M145.2,53.5l0.2,0.1C145.4,53.5,145.3,53.5,145.2,53.5z"/>
					<path class="st2" d="M87.1,21.7c0.1,0.3,0.2,0.5,0.3,0.7c0.1-0.1,0.1-0.1,0.2-0.2L87.1,21.7z"/>
					<path class="st2" d="M166.5,85.6L166.5,85.6L166.5,85.6z"/>
					<path class="st2" d="M170.3,90.2c-0.2-0.8-1.1,0-1.8,0c-0.6-0.8,0.6-0.7,1.1-1.2c-0.5-0.5-1.6-0.6-1.7-1
						c0.2-0.1,0.2-0.2,0.4-0.2c-1.1-0.3-0.7-1.8-2-2c0.1-0.1,0.1-0.1,0.2-0.2c-0.5,0.3-1,0.5-1.4,0.7c-0.1-0.3-0.9-0.3-0.3-0.8
						c0.1,0.2,0.3,0.1,0.6,0.1l-0.4-0.2c0.8-0.7,0.5,0.3,1.2,0c-0.6-0.6-1.7-1-1.7-1.6c0.9-0.5,0.9,1.1,1.4,0c0,0.3,0,0.6,0,1
						c1.2-1.2,0.1,0.5,1.5-0.7c-0.2-1.2-1-1-1.2-2.2c-0.6,0-0.7,0.4-1.4,0.4c-1.6-1.1,1.8-2.3,0-2.8c-0.7,0-2,0.5-1.7-0.6l1.2-0.3
						c-0.4-1.1-1.8,0.2-1.6-1.2c0.5,0,0.7,0.6,0.8,0.4c0.5-1.1-0.8-0.2-1.1-0.7l0.8-0.6c-0.4-0.5-0.8-0.9-1.3-1.4
						c-0.5-0.4-1.1-0.9-1.5-1.4c0.3-0.1,0.7-0.1,0.8-0.5c-0.6-0.6-1.1-1.4-1.4-2.2c-0.3-0.9-0.6-1.7-0.8-2.6l-1.1,0
						c-0.1-0.1,0.2-0.4,0.4-0.4c-0.1-0.7-0.5,0.3-0.9,0.2c-0.3-0.3,0.2-0.7,0.5-0.6c-1.2-0.5-3.1-1.6-3.1-3.1l0.3,0
						c-0.3-1-2,0.3-1.9-0.9l0.2,0c-0.9-1.8-3-2.9-3-4.9c-1.1,0.7-1-1.8-2.3-0.7c-0.2-1.4,0.3-1.4-0.4-3c-0.2-0.4-1.2,0.3-1.7,0.1
						l0.6-0.7l-1.2,0.2l0.5-1.1l-0.5-0.2c0.1,0.2,0,0.6-0.2,0.8c-0.8-0.2-1-1.7-0.7-2.1c-0.6-0.2-1.3-0.4-1.9-0.6
						c0.3-0.3,0.6-0.2,0.9-0.2c-1.4,0.1,0.5-0.9-0.8-0.8c0,0.2-0.4,0.4-0.5,0.5c0-0.7-0.8-1.4-1.5-1.7l0.5-0.4c-1-1-2.5-1.5-3.7-2.4
						c0.3,0.6-0.5,1.4-0.9,1.2l0.4-0.9c-0.6,0.3,0.2,0.6-0.7,0.8c-0.4-0.4,0.3-1.1,0.8-1.2l-0.8-0.1c0.1-0.3,0.4-0.3,0.6-0.6
						c-0.6,0.3-0.4-1.5-1.4-0.9l0.1-0.3c-1.3-0.8-2.1-0.9-3.2-1.5c-0.4,0.7-0.8,0.3-1.4,0.7c-0.7-0.7-1.2-1.8-2.2-2.2
						c-0.9,0-0.5,0.5-1.1,0.8c0.3-0.7-0.7-1.1,0.1-1.4c-1.2-0.5-1.6-0.6-3.3-0.8c0,0.4,0.1,0.6-0.1,0.8c-0.3,0-0.5-0.6-0.3-0.9
						l0.1,0c-2.1,0.3-2.8-3.8-4.8-3l0.1,0l-1.7,0.1c-0.6-0.4,0.6-0.3,0.4-1c-2,0.5-2.1-1.2-3.7-1.1c0.2-2.5-3.2-1.5-3.7-3.4
						l-0.2,0.5c-0.6,0.3-0.2-0.5-0.4-0.7c-0.2,0.4,0.1,0.6-0.2,0.8c-2.9-0.9-5.1-3.7-7.8-5.6c-1-0.7-1.8,2.2-2.6,0.4l0.8-0.7
						c-2.7,0.1-4.5-2-7-1.9c0.2-0.2,0.3-0.4,0.5-0.4c-0.2-0.9-1.7-0.7-1.9-0.1c-0.3-0.2,0.1-0.5,0-0.9c-0.3-0.6-1.5,0.5-1.5-0.3
						c0-0.1,0.2-0.2,0.3-0.2c-0.4,0.2-1.4-0.6-1.4,0.3c-0.7-0.6-1.7-0.2-2.2-0.8c-0.7,0.8-1.3-0.9-1.8,0.4c0.4-1.3-1.1-1.5-1.8-1
						c0.3-0.3-0.3-0.5,0-1c-0.6-0.2-1.2-0.1-1.3,0.6c-0.6-1.9-2.5,0.6-2.6-1.5c-1.9,0.2-3.7,0.3-5.3,0.2c0.4-1.3,1.8,0.3,2.1-1.1
						c-1.6,0.1-2.8,1-4.2,0.3c-0.3-0.3,0.4-0.5,0.6-0.7c-1.6,0.2-2.9-0.9-4.4-0.5c0-0.1,0.2-0.2,0.4-0.3c-0.3,0-0.6-0.3-0.7,0.3
						l0.3-0.1c0.2,1-1.5,1.5-1.7,2c0.9-1.6-1.2-0.8,0-2.7c-0.2,0.1-0.5,0.3-0.5,0.7c-0.2-0.2-0.2-0.4,0.1-0.8
						c-1,0.1-0.8,0.8-1.7,0.6c0.1-0.3,0.3-0.4,0.4-0.7c-0.6,0.5-1.1,0.9-1.8,0.5c0.1-0.2,0.1-0.4,0.3-0.4c-1.3-0.2-2.5,1-3.7,0.1
						c0.7-1.2-0.4-0.5-0.2-1.6l-0.8,0.2l0.2,0.6c-0.6-0.2-1.4,0.5-1.8,0l0.6-0.3L56.9,16l0.6,0.6c-0.8,0.4-0.3,1.4-1,0.9
						c0.2-0.1-0.6-0.2-0.8-0.9l0,0c-0.4,0.3-0.8,0.6-1.2,0.2c0-0.4,0.4-1.2,0.3-1.4c-0.5,0.8-1.6-0.1-2.2,0.8
						c0.2-0.2,0.3-0.8,0.3-0.9l-0.4,0.7c-0.2-0.3-0.3-0.4-0.1-0.9c-0.9-0.3,0,1.4-1,0.6c0.1,0,0.1-0.2,0.3-0.2c-1-0.5-2.2,0-3.1-0.6
						c0-1.2,0.9-0.1,0.8-1.1c-1.5-0.1-3.2,0.7-4.5,0.1l0.2,0.2c-0.5,1.5-0.9-1-1.7-0.4c0.2-0.1,0.4-0.8,0.3-0.7
						c-0.9-0.4-2,0-3.5,0.2l0.3-0.4c-0.5-0.5-1.4-0.5-2-0.8c-0.3,0.4-0.6,0.2-0.5,0.9c-1.4-2.6-3.7,0.6-5-1.6c0.2,0,0.5-0.3,0.4-0.3
						l-1.5,0.1c0,0.7,0.1,0.4,0.3,1c-0.2,0.4-0.7,0.6-1,0.6c0.7-0.3,0.2-1.1,0-1.5c0,0.2-0.1,0.4-0.1,0.6c-0.5-1.3-0.4,1.4-1.2,0.4
						l0.1-0.4c-0.4,0.1-0.8,0.5-1.2,0.4c0-0.8,0.5-0.3,0.6-1c-0.6,0-1.4,1.3-1.7,0.5c0.3-0.2,0.6-0.1,0.9-0.3c-0.4-1-0.5-0.8-0.9-1
						l0,0l-0.9-0.6l0.2,0.3c-1,2-1.5,0.2-2.7,1.4c1.1-1.2,0.3-0.7,0.5-1.6c-0.2-0.3-0.6-0.6-0.4-0.9c-0.6,0.7-0.7-0.7-1.5,0.3
						c0-0.3-0.5-0.1-0.3-0.8c-0.6,0.2,0.1,0.5,0,0.9c-1,0.9-2-1.5-3.5-0.2c-1.2,0.5-1.5,1.4-2.6,1.9c-0.3-0.5,0.4-1,0.4-1
						c-0.6-0.5-1-0.4-1.6-0.1c0.1-0.3,0-0.5-0.2-0.8c-0.5,0.1-0.3,1.1-0.9,0.6c0.1-0.3,0.2-0.8,0.5-1.2c-0.5,0.3-1.1,0.8-1.6,1.1
						c-0.2-0.5,0.3-0.8,0.5-1.1c-0.6,0.2-1.7,0.6-1.8,1.4l0.4,0.2c-0.2,0.1-0.2-0.7,0-0.8c0.5-0.7,0.8,0.2,0.8,0.5l-0.4,0.2
						c0.5,1.7,1.5-0.3,2.3-0.2l-0.3,1.2c0.3-0.3,0.5-0.7,0.8-1c0.2,0.3,0.2,1-0.1,1.2c0.5,0.6,0.5-0.4,0.9,0.3c0,0.1,0,0.2,0,0.2
						l0.5-0.3c-0.1,0.3,0,0.9-0.3,0.7c0.9,0.8,1.6-0.8,1.9,0.1l-0.1,0.1c1.3-0.3,0.2-0.9,1.3-1.9l0.4,2.3l0.2-0.9
						c0.1,0,0.4,0.1,0.3,0.5c0.6-0.6,0-0.4,0.3-1c0.6,0.9,1.8-0.2,1.8,1.3c0.3-0.7-0.6-0.6,0.2-1c0,1.6,0.8-0.2,1.3,0.6
						c-0.3,0.8-0.8,0.3-0.3,1.1c0.5-1.3,1.1,0.5,1.6,0.3c0.2-1.1,1.1-0.3,2-0.5c-0.1,0.4,1.5,0.8,2.2,1.4l-0.1,0.2
						c0.3-1.1,1.1-0.7,1.7-0.8c-0.1,0.6-0.3,0.9-0.6,1.1l0.5,0.1c0.2-0.3,0.4-0.5,0.8-0.5l-0.3,0.8c0.7,0.1,1.6-0.7,2.5,0
						c0.2-0.7-0.4-2.2,0.7-2.6c0,0.4-0.1,1.1-0.4,1.2c0.1,0,0.4-0.3,0.5-0.1l-0.5,0.6c0.4,0.4,0.3-0.5,0.7-0.4
						c-0.1,0.6,0.2,0.5,0,0.9c-0.1,0-0.3-0.3-0.4-0.1c0.4,0.2,0.8,0.6,0.8,1.1c0-0.3,0.1-0.8,0.4-0.8c0.7,0.1,0.1,0.7,0.5,1.1
						c0.3-0.4,0.6,0.1,0.8-0.7c0.2,0,0.2,0.5,0.2,0.7c0.4-0.3,1.8,0.2,1.5-0.8l-0.1-0.1c0,0,0,0,0.1,0l0,0l0,0
						c1.4-0.6,2.5,1,3.7,0.9l-0.1,0.3c0.8-0.2,1.7,0.1,2.3-0.4c0.2,0,0.4,0.6,0.2,1c0.6-0.1,0.7-0.4,1.4,0.2
						c-0.7,0.4,0.1,0.5-0.7,0.2c0.7,0.4,0.7,0.9,1.7,0.3c-0.4,0.7,0.3,1.1,0.7,0.9l-0.4-0.6c0.4,0,0.7,0.1,1.1,0.3l-0.4,0.9
						c1.2,1.5,3.1-1.4,3.8,0.8c0.5-0.6-0.7-0.7-0.2-1.4c0.6,0.3,1,1.8,1.2,1.9c0.8,0.8,1.2-1.2,2.1-0.6c0-0.4,0.1-1.3,0.9-1.5
						c0.6,0.3,0.5,1.6,0,1.8c-0.2,0-0.2-0.1-0.2-0.3c-0.2,0.1-0.6,0.2-0.4,0.6l0.2-0.3c0.3,0.4,1.2,0.6,0.8,1.1
						c0.6-0.2,0.4-0.5,0-0.8c0.7,0.7,1.3,0.3,2.2,0.9c-0.1-0.2-0.1-0.7,0-0.6c1.2,0.7,0.7-0.5,1.7-0.5c0.4,0.6-0.5,1.2,0.5,1
						c0.5,0.5-0.1,0.9-0.4,1.2c1-0.5,1.4,0.8,1.8,1L62.1,24c0.3-0.1,0.5,0,0.7,0l-0.1-0.8c0.2,0.2,0.4,0.2,0.4,0.5
						c0.4-0.4,0.1-1.2,0.8-1.7c0.2,0.4,1.1-0.1,1,0.8c-1-0.6-0.1,0.9-1,0.9c0.2-0.1,0.4,0,0.6,0.2c0,0.1-0.1,0.2-0.2,0.2
						c0.8,1.1,0.7-0.9,1.8-0.6c-0.3,0.5,0,1,0.2,1c-0.4-0.1,0-0.9,0.5-1.2c0.6,0.6,0.8-0.1,1.1,0L67.5,23c0.3-0.5,0.6-0.3,1.1-0.4
						c-0.1,0.4-0.5,0.2-0.4,0.4c0.7-0.8,0.9,1.2,1.8,0.8c0.2,0.4-0.2,1,0,1.3c1-0.5,0.7,0.9,1.7,0.6c-0.1-0.8-0.1-0.6,0.6-1.1
						l-1.5,0.1L72,24c-0.4-0.1-1,0.2-1.2,0c0.6-0.5,0.5-0.3,0.4-0.9c0.3,1.2,1.3-0.3,1.8,0.6l-0.5,1.7c0.8,1,2-0.4,3.2,0.4l-0.3-0.4
						c0.4-0.6,0.8,0.1,1.3,0c-0.2,0.6,0,0.8,0.1,1.2c0.1-0.4,0.9,0.3,1.4-0.8l0.4,0.9c1,0.6,1.6-1.3,2.6-0.8
						c-0.5,0.5-0.1,1.1-0.9,1.3c0.3,0.1,0.6,0.3,0.7-0.1c0.1,0.4,1.1-0.5,1.3,0.1c0.2-0.2,0.4-0.8,0.8-0.6c0,0.1-0.1,0.3-0.1,0.3
						c0.1-0.3,0.7-0.2,0.6-0.9c0.5,2.1,2.9,0.7,3.3,2.5c0.8,0,1.7,0.1,2.3,0.3C89,28.9,89,29,88.9,28.9c0.7,0.8,1.1-1.4,1.9-0.5
						c0.2,1.1-0.7,0.3-0.5,0.8c-0.5,1.9,1.3,0.2,1.6,1.5l-0.2,0c0.3,0.8,1.5-0.2,2.3,0.2c0,0-0.1,0.1-0.1,0.3c0.9-0.7,2.1-0.5,3-0.4
						c-0.6,0.6-0.5,0.2-0.7,1c0.4,0.1,0.4-1.2,1.2-1.1c0.1,0.5,0.4,1,0.1,1.8l-0.7-0.3c-0.1,1.1,0.9,0.4,1.1,0.7l-0.2,0.4
						c1.1,0.3,1.6-0.7,2.6-0.1l0-0.4c1.1-0.7,0.2,0.8,1.2,0.4l-0.4,1.1c0.5-0.1,1.9-0.3,2.7-0.1c-0.8,0.6-1.8,0.5-2.6,0.7
						c0.4,0.2,1.3,0.6,1.8,0.2c-0.2,0-0.5,0.2-0.6-0.1c0.9-0.6,1.7-0.6,2.5-0.2c-1.2,1.9,1.7,1.6,1.4,3.5c1.8,0,2.5,1.8,4.2,2.5
						c0.2-1.9,0.5,0.2,1.2-1.5c0.4,0.1,0.6,0.2,0.5,0.3l0.7,1.6c0,0.6-0.5,0.2-0.7,0.6c0.8,0.5,0,0.9,0.3,1.6
						c0.2-0.6,0.7-0.7,1.1-0.2l-0.3-1.1c1.6-0.3,0.3,1.9,1.9,1.6l-0.6,0.3c0.8,0,2.2,1.1,3.4,0c0,0.2-0.1,0.8-0.4,0.8
						c1.3,0.9,3.8,0.1,4.5,1.4l-0.3,0.4c0.3,0,0.8-0.5,0.9,0c-0.1,0.2-0.3,0.4-0.2,0.4c0.2-0.1,1-0.4,1.3,0l-0.5,0.3
						c1.1,1.2,2.6-0.1,3.9,0.3c-0.6,1.2,0.2,2.1,0.6,2.6l-0.1,0.2c1.3,1,3,0.5,4.6,1c0,1.8,2.4,2.4,3.2,4c0-0.3,0.7-0.8,1-0.7
						c0.1,0.4,1.4-0.1,0.6,0.8l-0.1-0.1c-0.5,1.1,0.3,1.3,0.7,1.7l1.1-1.2c-0.1,1.4,0.8,1.9,1.6,2.3c0.8,0.5,1.7,0.8,1.3,1.9
						c0.6,0,0.9,0.3,1.4,0.3l-0.6,0.6c0.6,0.9,0.8,1.3,1.9,2.1l-0.6,0.2c0.4,0.6,2.4-1,2.9-0.5l-0.8,1c0.8,1,0.8,2.6,2.5,2.9
						c-0.2,0.1-0.5,0.3-0.6,0.2c0.4,0.5,0.7,2.3,2,1.1c-0.9,0.7,0.7,1.1,1.5,1.4l-0.7,0.4c1.2-0.2,1.5-0.3,2.2,0.2
						c0,0.2-0.5,0.5-0.4,0.2c0,0.8,0.9,0,1,0.9l-0.6,0.1c0.3,0.6,0.5,0.4,1.2,0.3c0.5,0.2,0.5,1.2,0,1.7c0.4-0.2,1.2-0.2,1.2,0.2
						c-0.2,0.2-0.4,0.2-0.6,0.2c0.1,1.2,1.7,0.9,1.4,2c-0.2,0.2-0.3,0.3-0.4,0.4c-0.4-0.8-0.8-1.4-0.7-1.4c-0.7,0.4-0.4,1.1-1.6,1.2
						c0.8,0.2,2.4,0.4,2.4,1.1c0,0.1-0.1,0.1-0.2,0.2l-0.1,0c0,0.2,0.2,0.3,0.3,0.3c0,0.3,0,0.4,0.1,0.6c-0.5,0.4,0.1,0.9,0.2,1.2
						c0.7-0.4,0.8,0,1.2-0.7c0,0.1-0.1,0-0.3-0.2c0,0-0.1-0.1-0.1-0.1c0,0,0,0,0.1,0c-0.1-0.2-0.3-0.4-0.5-0.7c0.5,0,1,0.1,0.8,0.7
						c0.6-0.1,1.1-0.2,1.4-0.2c-0.8,1-0.9,2.1-1.5,2.6c0.9,0.7,1.5,2.1,3.2,2c0.3,0.2-0.3,0.5-0.4,0.7c-0.2-0.1-0.3-0.3-0.5-0.3
						c0.6,0.4,0.9,1.6,2,1.3c-0.1,0.9-1.1,0-0.5,0.9l-0.4,0c-0.4,1.3,0.6,1.8,1.5,2.4c0.9,0.6,1.8,1.3,1.2,2.7
						c0.1-0.2,0.1-0.3,0.3-0.4c-0.1,2.8,2.7,5,1.8,8c-0.1,0.8,0.6,0.7,1.2,1l-0.8,0.4c0.4,0.2,0.8,0.3,1.2,0.5c1,0.9-1.8,2.4,0,3.4
						l0.6-0.3c0,0.5,0.7,1.5,0,1.6c0.1,0,0.7,0.1,0.4,0.3l-0.5,0.1l1,1.1c-0.2,1-1.9,0.2-1.8,1.5c0.3,0.5,1.6,1.3,1.9,1
						c0-0.2,0.2-0.6,0.7-0.7l0.3,0.4c1.4-0.1,2.9,0.1,3.6-1.3l-1-0.7l0.6-0.4l0.2,0.7c0.6-0.5,0-0.7-0.5-0.9
						c0.3-0.1,0.6-0.3,0.7-0.5l-1.5-0.6c0.5-0.2,1.1,0.2,1.3-0.4c-0.7-0.3-1.1,0.6-1.7,0c0.6-0.5,1.1-0.5,0.5-0.9
						c0.3-0.1,0.6-0.1,0.8,0.1c-0.5-0.4-0.4-1.1-1.2-1.2c0.7-0.6-0.5-1.4,0.8-1.6c-0.3-0.1-1.2-0.5-1.3-0.9c1.7,0.4-0.2-1.5,1.5-1.7
						c-1.5-0.2-1.1-1.7-2.1-2.5c0.1,0,0.4,0.1,0.3,0.2c0-0.5,0.3-0.8,0.5-1.2c-1.1,0.3-1.6-0.5-2.4-0.7c0.9-1,1.4,0,2.4-0.5
						c-0.9,0.3-1.3-0.8-1.9-0.4c0.5-0.7,0.2-0.5,1-1.1c-1.4,0.4-0.4-0.4-1.4-0.5c0.5-0.9,1.2-0.6,0.6-1.2
						C169.6,89.7,170.3,90.2,170.3,90.2z M160.2,73.9C160.2,73.9,160.2,73.9,160.2,73.9c0.1,0.1,0.2,0.2,0.3,0.3
						C160.4,74.2,160.3,74.1,160.2,73.9z M159.3,72.6c0.1,0.2,0.2,0.4,0.3,0.6c-0.2,0.2-0.5,0.3-0.6,0.2
						C159.3,73.3,159.2,72.9,159.3,72.6z M156,78.3c-0.2-0.1-0.1-0.3,0-0.4c0.1,0.1,0.2,0.2,0.3,0.3c0,0,0.1,0,0.1,0
						C156.2,78.3,156.1,78.3,156,78.3z"/>
					<path class="st2" d="M157.1,78.2C157.2,78.2,157.2,78.2,157.1,78.2c0.1,0,0.2-0.1,0.2-0.2c-0.1,0-0.2,0-0.3,0.1
						C157.1,78.1,157.1,78.1,157.1,78.2z"/>
					<path class="st2" d="M38.9,15.6L38.9,15.6c0,0,0-0.1,0-0.1C38.9,15.5,38.9,15.5,38.9,15.6z"/>
					<polygon class="st2" points="146.8,54.4 146.7,54.6 146.9,54.5 					"/>
					<path class="st2" d="M31.1,11.2c0-0.1,0-0.2-0.1-0.2C31,11,31.1,11.1,31.1,11.2z"/>
					<path class="st2" d="M27.5,10.4L27,10C27.2,10.2,27.4,10.3,27.5,10.4z"/>
					<path class="st2" d="M24.7,9.6c-0.1,0.1-0.1,0.3-0.1,0.4l0,0L24.7,9.6z"/>
					<path class="st2" d="M69.1,17.8c0,0,0.1,0,0.1,0C69.5,17.7,69.3,17.7,69.1,17.8z"/>
					<path class="st2" d="M55.6,16.6c0.2-0.1,0.3-0.2,0.5-0.3C55.9,16.2,55.7,16.1,55.6,16.6z"/>
					<path class="st2" d="M83.8,20.7C83.8,20.7,83.8,20.7,83.8,20.7L83.8,20.7L83.8,20.7z"/>
					<path class="st2" d="M56.7,16.4c-0.2-0.2-0.4-0.2-0.6-0.2C56.3,16.4,56.5,16.5,56.7,16.4z"/>
					<path class="st2" d="M12,8.3l-0.2,0c0,0.1,0,0.1,0,0.1L12,8.3z"/>
					<path class="st2" d="M11.9,8.4l-0.2,0.1C11.8,8.5,11.9,8.5,11.9,8.4z"/>
					<path class="st2" d="M11.4,8.8l0.3-0.2C11.6,8.6,11.4,8.6,11.4,8.8z"/>
					<path class="st2" d="M16.1,8.7l0.1-0.3C16.1,8.4,16.1,8.5,16.1,8.7z"/>
					<path class="st2" d="M17.3,8.7C17,8.6,16.6,8,16.2,8.1l0,0.2C16.3,7.9,17,9.2,17.3,8.7z"/>
					<path class="st2" d="M21.6,12.9l-0.9-0.4c0.1,0.3,0.3,0.8-0.1,0.8C21.7,14.5,20.4,12.6,21.6,12.9z"/>
					<path class="st2" d="M24.5,13.7c-0.5,0.1-0.1,0.5-0.1,0.6C24.7,14.1,24.8,14.1,24.5,13.7z"/>
					<path class="st2" d="M45.3,17.6l-0.2,0.7C45.5,18.3,45.1,18,45.3,17.6z"/>
					<polygon class="st2" points="50.1,14.5 49.8,14 49.5,14.6 					"/>
					<polygon class="st2" points="51.2,20.4 51.1,20.5 51.8,20.3 					"/>
					<path class="st2" d="M85.7,29l0.2-0.9C85.5,28.2,85.2,29.2,85.7,29z"/>
					<path class="st2" d="M100,33.7c-0.1,0.5,0.2,1,0.6,0.7C100.3,34.1,100.2,33.6,100,33.7z"/>
					<path class="st2" d="M138.7,57.3l-0.4,0.1c0.2,0.1,0.4,0.1,0.6,0.2C138.8,57.4,138.8,57.4,138.7,57.3z"/>
				</g>
			</g>
		</g>
	</g>
</g>
<g>
	<g>
		<g>
			<g>
				<g>
					<path class="st2" d="M190.3,77.1c-0.2-0.1-0.7-0.4-0.7-0.3l0.8,0.5L190.3,77.1z"/>
					<path class="st2" d="M188.5,76.6c0.4,0.3,1.1,0.8,1.9,1.2c-0.8-0.5-0.4-0.3-1.4-1c-0.1-0.1,0.3,0.1,0.6,0.3
						c-0.2-0.1,0.2,0-0.3-0.3c-0.7-0.3-0.8-0.3-0.3,0.2C188.9,76.8,188.7,76.7,188.5,76.6z"/>
					<path class="st2" d="M184.4,80.7l0.1,0C184.5,80.7,184.5,80.7,184.4,80.7z"/>
					<path class="st2" d="M182.3,83.4c0,0-0.1-0.1-0.2-0.1C182.1,83.4,182.2,83.4,182.3,83.4z"/>
					<path class="st2" d="M181,83.4C181,83.4,181.1,83.4,181,83.4C181,83.4,181,83.4,181,83.4z"/>
					<path class="st2" d="M184.4,80.7l-0.3-0.1C184.4,80.8,184.3,80.7,184.4,80.7z"/>
					<path class="st2" d="M190.2,78.4c0,0-0.1-0.1-0.2-0.2c0,0,0.1,0.1,0.1,0.1C190.2,78.4,190.2,78.4,190.2,78.4z"/>
					<path class="st2" d="M184.5,78.9L184.5,78.9c-0.1-0.1-0.2-0.2-0.3-0.2L184.5,78.9z"/>
					<path class="st2" d="M184.9,77.8c0,0,0.7,0.4,1,0.6c-0.3-0.2-0.4-0.3-0.5-0.3C185.3,78.1,185.1,78,184.9,77.8z"/>
					<path class="st2" d="M187.1,77L187.1,77C187.1,76.9,187.1,76.9,187.1,77z"/>
					<path class="st2" d="M183.9,79.6c-0.1-0.1-0.2-0.1-0.3-0.1C183.7,79.5,183.8,79.5,183.9,79.6z"/>
					<path class="st2" d="M174,111.5c-0.1,0-0.1,0-0.1-0.1C173.9,111.5,174,111.5,174,111.5z"/>
					<path class="st2" d="M169.7,110.8L169.7,110.8c-0.2-0.1-0.3-0.2-0.5-0.3L169.7,110.8z"/>
					<path class="st2" d="M179.5,83.9C179.5,83.9,179.5,83.9,179.5,83.9C179.5,83.8,179.5,83.8,179.5,83.9z"/>
					<path class="st2" d="M175.3,92.9c0.7,0.3,0.8,0.6,1.6,0.9C176.6,93.7,175.8,93.1,175.3,92.9z"/>
					<path class="st2" d="M190.1,78.4C190.1,78.4,190.1,78.4,190.1,78.4C190.2,78.4,190.2,78.4,190.1,78.4z"/>
					<path class="st2" d="M176.9,93.8L176.9,93.8L176.9,93.8C176.9,93.8,176.9,93.8,176.9,93.8z"/>
					<path class="st2" d="M178.8,86.3c0.1,0.1,0.2,0.1,0.3,0.2C179,86.4,178.9,86.4,178.8,86.3z"/>
					<path class="st2" d="M180.7,85.3l-0.1,0C180.7,85.3,180.7,85.3,180.7,85.3z"/>
					<path class="st2" d="M179.3,87.7C179.3,87.7,179.2,87.7,179.3,87.7C179.3,87.8,179.3,87.8,179.3,87.7
						C179.3,87.7,179.2,87.7,179.3,87.7z"/>
					<path class="st2" d="M178.9,88.6c0.1,0,0.1,0,0.2,0.1l0,0L178.9,88.6z"/>
					<path class="st2" d="M175,108.6c-0.2-0.1-0.5-0.2-0.7-0.3C174.9,108.6,175,108.8,175,108.6z"/>
					<path class="st2" d="M189.8,78.2c0.2,0.1,0.3,0.2,0.3,0.2c0,0,0,0,0-0.1C190,78.3,189.9,78.2,189.8,78.2z"/>
					<path class="st2" d="M185.2,91L185,91C185.1,91,185.1,91,185.2,91z"/>
					<path class="st2" d="M178.2,102.2L178.2,102.2C178.3,102.3,178.3,102.2,178.2,102.2z"/>
					<path class="st2" d="M184.9,91.5c-0.3-0.1-0.4-0.2-0.6-0.2c0.1,0,0.1,0.1,0.2,0.1L184.9,91.5z"/>
					<path class="st2" d="M174.3,108.3L174.3,108.3L174.3,108.3z"/>
					<path class="st2" d="M175.6,110.1c0.1-0.1-0.9-0.6-1.5-0.9c-0.2-0.3,0.8,0.3,1.3,0.5c-0.2-0.2-1.1-0.8-1-0.8
						c0.2,0.1,0.2,0.1,0.4,0.2c-0.7-0.5,0.1-0.3-0.8-1c0.1,0,0.2,0.1,0.3,0.1c-0.5-0.2-1-0.5-1.4-0.7c0-0.1-0.6-0.4,0.1-0.1
						c0,0,0.2,0.2,0.4,0.3l-0.2-0.2c1,0.4,0.3,0.3,1,0.6c-0.2-0.3-0.9-0.8-0.6-0.8c0.9,0.4,0.2,0.4,1.1,0.7l-0.4,0
						c1.5,0.6-0.1,0,1.4,0.7c0.4-0.1-0.4-0.5,0-0.5c-0.5-0.3-0.8-0.4-1.2-0.7c-0.8-0.7,2.4,1,1.3,0.1c-0.6-0.4-1.7-1-1-0.8l1,0.6
						c0.2-0.1-1.4-0.9-0.6-0.7c0.4,0.2,0.3,0.3,0.4,0.4c0.9,0.3-0.5-0.4-0.5-0.5l0.9,0.4c0-0.3-0.6-0.8-0.6-1.1
						c0.3,0.2,0.5,0.3,0.8,0.4c-0.3-0.5,0.4-0.5,1.1-0.5l-0.7-0.5c0,0,0.4,0.1,0.5,0.2c0.4,0-0.5-0.3-0.8-0.5c0-0.1,0.5,0.2,0.7,0.3
						c-0.6-0.5-1.2-1.3-0.2-1l0.2,0.2c0.4,0-1.5-1-0.7-0.8l0.1,0.1c0.5-0.2,0-0.9,1.3-0.5c-1.1-0.6,0.7-0.1-0.9-0.9
						c0.9,0.2,1.1,0.4,1.8,0.4c0.1,0-0.9-0.6-1-0.8l0.8,0.4l-0.8-0.6l1,0.5l-0.2-0.2c-0.1,0-0.4-0.1-0.6-0.3c-0.3-0.3,0.7,0,1.2,0.2
						l-0.5-0.7c0.3,0.2,0.4,0.3,0.6,0.4c-0.8-0.6,0.9,0.4,0.2-0.1c-0.2-0.1-0.5-0.3-0.6-0.4c0.5,0.2,0.6,0,0.5-0.2l0.6,0.3
						c0.3-0.1,0-0.6,0.1-0.9c-0.3,0-1.3-0.6-1.3-0.7l0.9,0.4c-0.5-0.3-0.4-0.1-1-0.5c0.1,0,1,0.5,1.3,0.7l-0.2-0.3
						c0.3,0.1,0.4,0.2,0.7,0.4c-0.5-0.3,1,0.3,0.1-0.3l0.3,0.1c0.1-0.2-0.1-0.5,0-0.7c-0.7-0.4-0.5-0.4-1.1-0.8c0.3,0,1,0.1,1-0.1
						c-0.3-0.3-0.6-0.4-1-0.7c0.7,0.4,0.7,0.1,1.2,0.5c0-0.3,0-0.3-0.4-0.9c-0.3-0.1-0.4-0.1-0.7-0.3c-0.1-0.1,0.3,0,0.7,0.2
						l0.1,0.1c-0.9-0.8,2.4,0.3,1.1-0.6l0.1,0.1l-0.6-0.6c0.2-0.1,0.5,0.3,0.9,0.5c-1-0.9,0.4-0.3-0.2-1c2.1,0.9,0.2-0.7,1.6-0.2
						l-0.5-0.2c-0.4-0.3,0.3,0.1,0.4,0.1c-0.4-0.2-0.5-0.2-0.7-0.3c-0.3-0.8,1.3-0.7,2-1c0.2-0.1-2.4-1.4-1.1-1.1l0.8,0.5
						c-0.8-1,0.5-0.8-0.2-1.6c0.2,0.1,0.4,0.3,0.4,0.3c0.7,0.3,0.2-0.3-0.3-0.6c0.1,0,0.5,0.2,0.8,0.3c0.4,0.1-0.7-0.6,0-0.3
						c0.1,0,0.2,0.1,0.2,0.2c-0.3-0.2,0.2-0.2-0.5-0.5c0.4,0-0.2-0.4,0.3-0.3c-0.8-0.5,0.5,0-0.6-0.7c1.2,0.7,1.1,0.3,0.6-0.1
						c0.3,0.2,0.4,0.1,0.9,0.4c0-0.1-0.1-0.3-0.8-0.6c1.5,0.6-0.9-1,0.9-0.1c-0.5-0.7-0.8-1.2-0.9-1.6c1.2,0.7,0,0.4,1.2,1
						c-0.3-0.5-1.3-1.2-0.9-1.3c0.2,0,0.5,0.3,0.7,0.5c-0.3-0.5,0.4-0.4-0.1-1c0.1,0.1,0.2,0.2,0.3,0.2c0-0.1,0.2,0-0.3-0.3l0.1,0.1
						c-0.8-0.4-1.5-1.1-1.9-1.3c1.5,0.9,0.5,0,2.4,1.2c-0.1-0.1-0.3-0.3-0.7-0.5c0.1,0,0.3,0.1,0.7,0.4c-0.2-0.3-0.8-0.6-0.7-0.7
						c0.3,0.1,0.3,0.2,0.6,0.4c-0.5-0.4-0.9-0.7-0.6-0.7c0.2,0.1,0.4,0.2,0.3,0.2c0-0.3-1.1-1.1-0.5-1.1c1.1,0.7,0.4,0.1,1.4,0.7
						l-0.2-0.3l-0.5-0.2c0.1-0.1-0.6-0.6-0.2-0.5l0.4,0.3l-0.1-0.3l-0.4-0.1c-0.4-0.4-1.2-0.7-0.9-0.7c0.1,0.1,0.1-0.1,0.7,0.2l0,0
						c-0.3-0.2-0.6-0.5-0.3-0.4c0.3,0.2,1.1,0.6,1.3,0.7c-0.8-0.5-0.1-0.4-0.9-0.9c0.2,0.1,0.7,0.4,0.8,0.5l-0.6-0.4
						c0.2,0.1,0.3,0.1,0.8,0.4c0.2-0.1-1.3-0.6-0.6-0.5c0,0,0.1,0.1,0.2,0.2c0.4,0-0.2-0.6,0.2-0.6c1,0.5,0.2,0.3,1,0.7
						c0-0.3-0.9-1.2-0.5-1.3l-0.1,0c-1.4-0.8,0.8,0.2,0.2-0.3c0.1,0.1,0.7,0.5,0.6,0.4c0.3,0-0.2-0.5-0.5-1l0.3,0.2
						c0.4,0.1,0.3-0.1,0.5-0.2c-0.3-0.2-0.2-0.3-0.8-0.5c2.2,0.8-0.7-1.2,1.1-0.5c0,0,0.3,0.3,0.3,0.2l-0.2-0.4
						c-0.6-0.3-0.4-0.2-0.9-0.4c-0.3-0.2-0.6-0.5-0.5-0.5c0.3,0.3,1,0.5,1.3,0.7c-0.2-0.1-0.4-0.2-0.6-0.3c1.1,0.5-1.2-0.7-0.4-0.5
						l0.3,0.2c-0.1-0.2-0.5-0.5-0.4-0.5c0.7,0.4,0.3,0.3,0.9,0.6c0-0.1-1.2-0.9-0.5-0.6c0.2,0.2,0.1,0.2,0.3,0.4
						c0.9,0.4,0.7,0.2,0.8,0.2l0,0l0.5,0l-0.2-0.1c-1.8-1.2-0.2-0.4-1.3-1.3c1,0.8,0.6,0.4,1.4,0.9c0.2,0.1,0.5,0.2,0.7,0.3
						c-0.6-0.4,0.6,0.2-0.3-0.5c0.3,0.1,0.1-0.1,0.7,0.3c-0.1-0.2-0.5-0.2-0.8-0.4c-0.8-0.6,1.3,0.2,0.2-0.7c-0.4-0.5-1.2-1-1.5-1.4
						c0.4,0.2,0.9,0.6,0.9,0.6c0.4,0.1,0.4,0,0.2-0.3c0.2,0.1,0.4,0.2,0.7,0.4c0-0.1-0.9-0.6-0.5-0.5c0.3,0.2,0.7,0.5,1,0.7
						c-0.2-0.2-0.6-0.6-0.8-0.8c0.5,0.2,0.6,0.4,0.9,0.6c-0.1-0.2-0.3-0.5-0.9-0.9l-0.3-0.1c0-0.1,0.6,0.3,0.7,0.4
						c0.5,0.4-0.3,0-0.6-0.2l-0.1-0.2c-1.5-0.8,0.1,0.4-0.1,0.5l-1.1-0.7l0.8,0.6c-0.3-0.1-0.9-0.5-1-0.6c-0.6-0.2,0.3,0.3-0.3,0
						c-0.1,0-0.1-0.1-0.2-0.1l0.3,0.3c-0.2-0.1-0.8-0.4-0.6-0.4c-0.7-0.2,0.7,0.7-0.2,0.3l-0.1-0.1c0.2,0.4,0.8,0.5,1.6,1.2l-2-1
						l0.8,0.5c0,0-0.1,0-0.4-0.2c0.5,0.4,0.4,0.2,0.8,0.5c-0.8-0.3,0.2,0.5-1.1-0.2c0.6,0.4,0.5,0.2,0.9,0.5c-1.4-0.7,0.2,0.3-0.5,0
						c-0.7-0.4-0.3-0.3-0.9-0.6c1.2,0.7-0.4,0-0.2,0.3c0.9,0.5,0.3,0.4,0.5,0.7c-0.3-0.2-0.7,0-1.1-0.1l-0.2-0.1
						c0.9,0.6,0.7,0.6,0.8,0.8c-0.6-0.3-0.8-0.5-1-0.7l0,0.1c0.3,0.2,0.4,0.3,0.5,0.4l-0.7-0.4c0,0.1,0.7,0.7,0.1,0.6
						c0.7,0.4,1.9,0.9,2.3,1.3c-0.4-0.2-1-0.5-1.1-0.7c0,0,0.3,0.2,0.1,0.2l-0.6-0.4c-0.3-0.1,0.5,0.3,0.4,0.4
						c-0.5-0.3-0.4-0.2-0.8-0.4c0,0,0.2,0.1,0.1-0.1c-0.1,0-0.5-0.1-0.9-0.3c0.3,0.2,0.7,0.4,0.7,0.5c0,0.1-0.6-0.3-1-0.4
						c0.3,0.2-0.1,0.1,0.7,0.5c0,0-0.4-0.2-0.6-0.3c0.3,0.3-0.1,0.4,0.8,0.7l0.1,0c0,0,0,0,0,0l0,0l0,0c0.6,0.6-0.7,0.2-0.5,0.6
						l-0.3-0.1c0.2,0.3,0,0.4,0.5,0.8c0,0-0.5-0.2-0.8-0.4c0.1,0.2,0.4,0.4-0.1,0.3c-0.4-0.3-0.4-0.2-0.3-0.3
						c-0.3,0-0.7-0.2-0.1,0.3c-0.6-0.4-0.9-0.4-0.7-0.2l0.5,0.2c0.1,0.1,0,0.1-0.1,0.2l-0.9-0.5c-1.2-0.3,1.5,1.5-0.3,0.7
						c0.6,0.4,0.5,0.1,1.2,0.6c-0.2,0.1-1.5-0.5-1.5-0.5c-0.6-0.1,1.2,0.9,0.8,0.8c0.3,0.2,1.2,0.6,1.4,0.9
						c-0.2,0.1-1.4-0.6-1.6-0.8c0,0,0.1,0,0.2,0.1c-0.1-0.1-0.2-0.2-0.6-0.4l0.3,0.2c-0.4-0.1-0.4,0.1-0.9-0.3
						c0.2,0.3,0.5,0.3,0.7,0.3c-0.5-0.1-0.1,0.2-0.5,0.2c0.2,0.1,0.6,0.3,0.5,0.3c-0.5,0,0.5,0.4,0.6,0.7c-0.5-0.2-1.1-0.7-0.8-0.3
						c-0.4-0.1-0.8-0.4-1.1-0.6c0.5,0.5-0.5,0-0.7,0.1l-0.2-0.2c0.1,0.1,0.1,0.2,0.1,0.2l0.6,0.3c-0.1,0-0.2,0-0.4-0.1
						c0.4,0.3,1.1,0.5,1.6,0.9c-0.3-0.1,0.2,0.4-0.6-0.1c0.4,0-0.8-0.4-0.9-0.7c0.1,0.1,0.1,0.1-0.1,0.1c-0.1,0-0.2-0.1-0.2-0.1
						c-0.8-0.2,0.9,0.6,0.8,0.8c-0.5-0.3-0.9-0.4-0.8-0.4c0.1-0.1,0.8,0.4,1.1,0.7c-0.4-0.1,0.2,0.3,0.1,0.3l0.2,0
						c0.5,0.3,0.4,0.3,0.5,0.5c-0.4-0.2-0.2-0.2-0.4-0.3c0.8,0.5-1-0.3-0.5,0.2c-0.3-0.1-0.9-0.5-1.1-0.5c0.5,0.5-0.7-0.2-0.3,0.2
						c0.7,0.3,0.5,0.2,1.1,0.7l-0.3-0.5l0.8,0.7c0-0.1-0.3-0.4-0.2-0.4c0.5,0.4,0.3,0.3,0.9,0.5c-1-0.4,0.4,0.5-0.3,0.3l-1.6-0.9
						c-0.8-0.2,0.6,0.8,0.1,0.8l0.3,0.1c0.6,0.4,0,0.2,0.2,0.4c-0.5-0.3-0.7-0.3-1.1-0.5c0.4,0.2-0.1,0.1,0.9,0.7l-0.7-0.3
						c-0.4,0,1.4,1,1.1,1.1c-0.5-0.4-0.9-0.5-1.3-0.8c0,0.1-0.2,0.1,0.2,0.3c-0.3-0.1,0.6,0.5,0.1,0.3c0.2,0.2,0.8,0.5,0.7,0.5
						c-0.1-0.1-0.3-0.1-0.3-0.1c0.3,0.1,0.3,0.3,0.9,0.6c-1.7-0.7-0.2,0.6-1.6,0c0.1,0.2,0.2,0.5,0.2,0.6c-0.2-0.1-0.3-0.1-0.2-0.1
						c-0.6-0.1,1.4,0.9,0.8,0.8c-0.9-0.4-0.4-0.3-0.8-0.5c-1.7-0.9,0.1,0.4-1-0.1l-0.1-0.1c-0.6-0.2,0.5,0.6,0.3,0.7
						c0,0-0.1-0.1-0.3-0.1c0.8,0.6,1,0.9,1.2,1.2c-0.6-0.4-0.3-0.3-1-0.6c0.1,0.1,1.1,0.6,1.2,0.8c-0.4-0.2-0.8-0.2-1.5-0.6l0-0.1
						c-1-0.4-0.1,0.2-0.3,0.2l-0.4-0.2c0,0.3,1.1,0.8,0.9,1l0.3,0.1c1,0.7-0.6-0.2,0.1,0.3l-1.1-0.5c0.2,0.2,0.9,0.8,1,1
						c-0.7-0.5-1-0.9-1.4-1.2c0,0.1-0.1,0.3,0.4,0.6c-0.1-0.1-0.3-0.3-0.1-0.2c0.8,0.5,1.1,0.9,1,1c-2-1.1-0.7,0.1-2.3-0.6
						c0.6,0.7-0.6,0.4-0.6,0.7c1.6,0.7,0,0.1,1.6,1c0.1,0.1,0,0.1-0.1,0.1l-1.1-0.3c-0.5-0.2-0.3-0.3-0.7-0.4
						c-0.2,0.1-0.7-0.3-1.2-0.4c0.6,0.3,0.8,0.5,0.5,0.5l0.8,0.3c0.7,0.7-1.5-0.5-0.7,0.1l-0.5-0.3c0.2,0.3-0.2,0.4,1,1.2
						c-0.2-0.1-0.7-0.3-0.7-0.4c-0.3,0.2,1.1,1.3,0.1,1.1l-0.4-0.2c0.1,0.1,0.7,0.5,0.3,0.3c-0.2-0.1-0.4-0.2-0.4-0.2
						c0.1,0.1,0.6,0.5,0.4,0.4l-0.4-0.3c-0.7,0,0.9,1,1,1.3c-1.2-0.6-1.7-0.6-1.9-0.6l-0.2-0.1c-0.3,0.2,0.7,1,1,1.6
						c-1.4-0.5-0.8,0.3-1.7,0.2c0.2,0.1,0.9,0.5,1,0.6c-0.3-0.1,0.7,0.6-0.4,0l0,0c-1.1-0.5-0.9-0.2-1-0.1l1.4,0.8
						c-2.2-0.8,0.4,1.1-1.5,0.3c0.3,0.3,0.3,0.3,0.6,0.6l-0.8-0.4c-0.3,0.1-0.4,0.1-0.4,0.5l-0.5-0.3c-0.1,0.1,2.1,1.3,2.1,1.4
						l-1.1-0.6c-0.1,0.2-1.2,0-0.3,0.7c-0.2-0.1-0.5-0.3-0.5-0.3c-0.1,0.1-1,0,0.6,0.8c-1-0.5-0.2,0.2,0.2,0.5l-0.7-0.4
						c0.9,0.6,1.2,0.7,1.3,1c-0.1,0-0.6-0.3-0.4-0.2c-0.4-0.1,0.7,0.5,0.2,0.4l-0.4-0.3c-0.1,0.1,0.1,0.2,0.7,0.6
						c0.3,0.2-0.3,0.1-1-0.2c0.4,0.2,0.9,0.6,0.7,0.5c-0.3-0.1-0.4-0.2-0.5-0.3c-0.6-0.1,0.7,0.7-0.1,0.5c-0.2-0.1-0.4-0.2-0.5-0.2
						c0.1-0.1,0.2-0.3,0.3-0.2c-0.7-0.4-0.9-0.3-1.8-0.9c0.5,0.4,1.5,1.1,1.1,1.1c-0.1,0-0.1-0.1-0.2-0.1l-0.1-0.1
						c-0.1,0,0,0.1,0.1,0.1c-0.1,0-0.2,0-0.3,0c-0.6-0.3-0.4,0-0.4,0c0.8,0.4,0.6,0.4,1.2,0.6c-0.1,0-0.1-0.1-0.1-0.1
						c0,0,0,0-0.1-0.1l0.1,0c0-0.1,0-0.1,0-0.2c0.4,0.2,0.6,0.5,0.2,0.3c0.5,0.3,0.9,0.6,1.2,0.7c-1.1-0.5-1.7-0.6-2.4-0.9
						c0.3,0.4,0,0.6,1.4,1.4c0.2,0.1-0.4-0.1-0.7-0.2c-0.1-0.1-0.1-0.1-0.3-0.3c0.3,0.3,0,0.4,0.9,0.9c-0.5-0.1-0.9-0.5-0.8-0.3
						l-0.3-0.2c-1.8-0.4,2.2,1.9,0,1.3c0.1,0,0.2,0,0.4,0.1c-1.1,0,0.3,1.4-1.3,1.2c-0.4,0,0.3,0.3,0.7,0.6l-0.8-0.4l0.9,0.6
						c0.6,0.5-2.2-0.7-1,0.2l0.6,0.2c-0.1,0,0.2,0.4-0.4,0.1c0.1,0.1,0.6,0.3,0.2,0.2l-0.4-0.2l0.6,0.6c-0.4,0-1.7-0.9-1.9-0.7
						c0.1,0.2,1.1,0.9,1.4,1c0,0,0.3,0,0.7,0.2l0.2,0.2c1.2,0.6,2.5,1.4,3.5,1.6l-0.7-0.5l0.6,0.3l0,0.1c0.6,0.2,0.1-0.1-0.2-0.3
						c0.3,0.2,0.6,0.2,0.7,0.3l-1.1-0.7c0.5,0.2,0.9,0.6,1.3,0.6c-0.5-0.3-1.1-0.5-1.4-0.8c0.6,0.2,1.1,0.5,0.6,0.1
						c0.3,0.2,0.5,0.3,0.6,0.4c-0.3-0.3-0.1-0.3-0.7-0.6c0.7,0.3-0.1-0.3,1.1,0.3c-0.3-0.2-0.9-0.6-0.9-0.7c1.3,0.8,0.2-0.2,1.7,0.6
						c-1.2-0.7-0.4-0.6-1-1.1c0.1,0.1,0.3,0.2,0.2,0.2c0.2,0,0.5,0.1,0.8,0.2c-1-0.5-1.2-0.8-1.8-1.2c1.1,0.4,1.2,0.7,2.2,1.2
						c-0.9-0.4-0.8-0.6-1.5-0.9c0.7,0.2,0.3,0.1,1.2,0.5c-1.3-0.7-0.2-0.2-0.9-0.7c0.7,0.2,1.2,0.6,0.9,0.3
						C175.2,109.8,175.6,110.1,175.6,110.1z M175,105.8C175,105.8,175,105.8,175,105.8C175,105.9,175,105.9,175,105.8
						C175,105.9,175,105.9,175,105.8z M175.1,105.6C175.1,105.6,175,105.6,175.1,105.6c-0.4,0-0.6-0.2-0.6-0.2
						C174.7,105.5,174.9,105.5,175.1,105.6z M169.6,103.4c-0.1-0.1,0.1,0,0.2,0c0,0,0,0.1,0.1,0.1c0,0,0.1,0,0.1,0.1
						C169.9,103.6,169.7,103.5,169.6,103.4z"/>
					<path class="st2" d="M170.6,104C170.6,104,170.6,104.1,170.6,104c0.1,0.1,0.2,0.1,0.2,0.1L170.6,104L170.6,104z"/>
					<path class="st2" d="M184.6,80.7L184.6,80.7C184.6,80.7,184.6,80.7,184.6,80.7C184.6,80.7,184.6,80.7,184.6,80.7z"/>
					<polygon class="st2" points="178.4,102.7 178.3,102.6 178.4,102.7 					"/>
					<path class="st2" d="M187.9,80.7c0.1,0,0.1,0.1,0.2,0.1C188.1,80.8,188,80.7,187.9,80.7z"/>
					<path class="st2" d="M188.4,80.2l0.3,0.1C188.6,80.2,188.5,80.2,188.4,80.2z"/>
					<path class="st2" d="M189,79.9c-0.1-0.1-0.2-0.1-0.3-0.2l0,0L189,79.9z"/>
					<path class="st2" d="M185.7,87.9C185.7,88,185.7,88,185.7,87.9C185.8,88.1,185.8,88,185.7,87.9z"/>
					<path class="st2" d="M185.2,84.7c0.1,0.1,0.2,0.2,0.3,0.3C185.6,85,185.6,85,185.2,84.7z"/>
					<path class="st2" d="M185.2,91L185.2,91C185.2,91,185.2,91,185.2,91L185.2,91z"/>
					<path class="st2" d="M185.4,85.1C185.6,85.1,185.6,85.1,185.4,85.1C185.4,85,185.4,85,185.4,85.1z"/>
					<path class="st2" d="M190.6,78L190.6,78C190.5,78,190.5,78,190.6,78L190.6,78z"/>
					<path class="st2" d="M190.5,78L190.5,78C190.4,77.9,190.4,77.9,190.5,78z"/>
					<path class="st2" d="M190.3,77.7l0.2,0.2C190.4,77.9,190.5,77.9,190.3,77.7z"/>
					<path class="st2" d="M189.9,78.5l0.3,0.2C190.1,78.6,190,78.5,189.9,78.5z"/>
					<path class="st2" d="M189.8,78.7c0.1,0,0.6,0.2,0.5,0.1l-0.2-0.1C190.5,78.9,189.4,78.4,189.8,78.7z"/>
					<path class="st2" d="M186.1,77.6l0.3,0c-0.3-0.1-0.7-0.3-0.7-0.4C184.7,76.9,186.3,77.5,186.1,77.6z"/>
					<path class="st2" d="M185.4,77.9c-0.1-0.2-0.4-0.2-0.6-0.3C185,77.8,185.1,77.8,185.4,77.9z"/>
					<path class="st2" d="M183.4,81.5l-0.7-0.4C182.7,81.2,182.9,81.3,183.4,81.5z"/>
					<polygon class="st2" points="186.4,84.1 186.9,84.3 186.3,83.9 					"/>
					<polygon class="st2" points="181.4,81.9 181.3,81.8 181.5,82 					"/>
					<path class="st2" d="M178.3,88.1l0.8,0.4C179,88.4,178.1,87.9,178.3,88.1z"/>
					<path class="st2" d="M177.7,91.2c-0.4-0.2-0.7-0.3-0.4,0C177.4,91.2,177.8,91.3,177.7,91.2z"/>
					<polygon class="st2" points="172.1,98.4 171.8,98.2 172,98.5 					"/>
				</g>
			</g>
		</g>
	</g>
</g>
<g>
	<g>
		<g>
			<g>
				<g>
					<path class="st2" d="M171.8,111.4c0.1-0.2,0.3-0.8,0.2-0.7l-0.4,0.9L171.8,111.4z"/>
					<path class="st2" d="M172,109.5c-0.3,0.4-0.7,1.2-1,2c0.4-0.9,0.3-0.5,0.8-1.5c0.1-0.1,0,0.3-0.2,0.7c0.1-0.2,0,0.2,0.3-0.3
						c0.2-0.7,0.1-0.8-0.2-0.3C171.8,109.9,172,109.6,172,109.5z"/>
					<path class="st2" d="M166.9,105.4l0,0.1C166.9,105.5,166.9,105.5,166.9,105.4z"/>
					<path class="st2" d="M163.6,103.2c0,0,0.1-0.1,0.1-0.2C163.7,103.1,163.6,103.1,163.6,103.2z"/>
					<path class="st2" d="M163.5,101.9C163.5,102,163.5,102,163.5,101.9C163.5,101.9,163.5,101.9,163.5,101.9z"/>
					<path class="st2" d="M166.9,105.4l0-0.3C166.8,105.4,166.9,105.4,166.9,105.4z"/>
					<path class="st2" d="M170.3,111.3c0,0,0.1-0.1,0.2-0.2c0,0-0.1,0.1-0.1,0.1C170.3,111.2,170.3,111.3,170.3,111.3z"/>
					<path class="st2" d="M168.8,105.5L168.8,105.5c0.1-0.1,0.2-0.2,0.2-0.3L168.8,105.5z"/>
					<path class="st2" d="M170.1,105.9c0,0-0.4,0.7-0.5,1c0.2-0.3,0.3-0.4,0.3-0.5C169.9,106.3,170,106.1,170.1,105.9z"/>
					<path class="st2" d="M171.4,108.1L171.4,108.1C171.4,108,171.4,108,171.4,108.1z"/>
					<path class="st2" d="M168,104.9c0-0.1,0.1-0.2,0.1-0.3C168.1,104.7,168.1,104.8,168,104.9z"/>
					<path class="st2" d="M132.3,95.1c0-0.1,0-0.1,0-0.1C132.3,95,132.3,95.1,132.3,95.1z"/>
					<path class="st2" d="M131.7,90.7L131.7,90.7c0.1-0.2,0.1-0.4,0.1-0.5L131.7,90.7z"/>
					<path class="st2" d="M162.9,100.4C162.9,100.4,162.9,100.4,162.9,100.4C162.9,100.4,162.9,100.4,162.9,100.4z"/>
					<path class="st2" d="M152.1,96.1c-0.2,0.7-0.5,0.8-0.7,1.7C151.5,97.4,152,96.6,152.1,96.1z"/>
					<path class="st2" d="M170.3,111.2C170.3,111.2,170.2,111.2,170.3,111.2C170.2,111.2,170.3,111.2,170.3,111.2z"/>
					<path class="st2" d="M151.4,97.7L151.4,97.7L151.4,97.7C151.4,97.8,151.4,97.8,151.4,97.7z"/>
					<path class="st2" d="M160.1,99.6c-0.1,0.1-0.1,0.2-0.1,0.3C160,99.9,160,99.8,160.1,99.6z"/>
					<path class="st2" d="M161.5,101.6l0-0.1C161.4,101.6,161.4,101.6,161.5,101.6z"/>
					<path class="st2" d="M158.5,100.2C158.5,100.1,158.6,100,158.5,100.2C158.5,100.1,158.5,100.2,158.5,100.2
						C158.5,100.1,158.6,100,158.5,100.2z"/>
					<path class="st2" d="M157.5,99.7c0,0.1,0,0.1-0.1,0.2l0.1,0L157.5,99.7z"/>
					<path class="st2" d="M135.3,95.5c0.1-0.2,0.1-0.5,0.2-0.7C135.3,95.4,135.1,95.5,135.3,95.5z"/>
					<path class="st2" d="M170.5,110.9c-0.1,0.2-0.1,0.3-0.2,0.3c0,0,0,0,0.1,0C170.4,111.1,170.4,111,170.5,110.9z"/>
					<path class="st2" d="M155.6,106.1l-0.1-0.2C155.5,106,155.5,106.1,155.6,106.1z"/>
					<path class="st2" d="M142.1,98.9L142.1,98.9C142,99,142,99,142.1,98.9z"/>
					<path class="st2" d="M155,105.8c0.1-0.3,0.1-0.5,0.2-0.6c0,0.1-0.1,0.1-0.1,0.2L155,105.8z"/>
					<path class="st2" d="M135.5,94.8L135.5,94.8L135.5,94.8z"/>
					<path class="st2" d="M133.9,96.4c0.1,0.1,0.4-1,0.6-1.6c0.3-0.2-0.2,0.8-0.3,1.4c0.2-0.2,0.6-1.2,0.7-1.1
						c-0.1,0.2-0.1,0.2-0.2,0.5c0.4-0.8,0.3,0.1,0.9-0.9c0,0.1-0.1,0.2-0.1,0.3c0.2-0.5,0.4-1.1,0.5-1.4c0.1,0,0.4-0.6,0.1,0.1
						c0,0-0.1,0.2-0.2,0.4l0.2-0.3c-0.3,1-0.2,0.3-0.5,1c0.2-0.3,0.7-1,0.7-0.7c-0.3,1-0.4,0.2-0.6,1.1l0-0.4
						c-0.4,1.5-0.1-0.1-0.5,1.5c0.1,0.3,0.4-0.4,0.5,0c0.3-0.5,0.3-0.8,0.6-1.3c0.7-0.8-0.7,2.5,0,1.3c0.3-0.6,0.8-1.8,0.7-1.1
						l-0.5,1c0.1,0.2,0.8-1.5,0.7-0.7c-0.2,0.4-0.3,0.3-0.3,0.4c-0.2,0.9,0.4-0.6,0.5-0.5l-0.4,0.9c0.3-0.1,0.8-0.6,1.1-0.7
						c-0.1,0.3-0.3,0.5-0.4,0.8c0.5-0.3,0.5,0.4,0.5,1.1l0.5-0.7c0,0-0.1,0.4-0.3,0.5c-0.1,0.4,0.3-0.5,0.5-0.8
						c0.1,0-0.2,0.5-0.3,0.7c0.5-0.6,1.3-1.1,1.1-0.2l-0.2,0.2c0,0.4,1.1-1.5,0.8-0.7l-0.1,0.1c0.2,0.5,1,0.1,0.6,1.4
						c0.7-1.1,0.1,0.7,1-0.8c-0.2,0.9-0.5,1.1-0.5,1.8c0,0.1,0.7-0.9,0.9-1l-0.5,0.8l0.6-0.8l-0.5,1L142,99c0-0.1,0.1-0.4,0.3-0.6
						c0.4-0.3,0,0.8-0.2,1.2l0.7-0.5c-0.2,0.3-0.3,0.4-0.5,0.6c0.7-0.7-0.5,0.9,0.2,0.2c0.1-0.2,0.3-0.5,0.4-0.6
						c-0.2,0.5,0,0.7,0.3,0.5l-0.3,0.5c0.2,0.3,0.7,0.1,1,0.2c0-0.3,0.6-1.3,0.7-1.3l-0.4,0.9c0.3-0.5,0.1-0.4,0.5-1
						c0.1,0.2-0.4,1-0.7,1.3l0.3-0.2c-0.1,0.3-0.2,0.4-0.4,0.7c0.3-0.5-0.2,1,0.4,0.1l-0.1,0.3c0.3,0.2,0.6-0.1,0.9,0
						c0.4-0.8,0.4-0.5,0.8-1.1c0.1,0.3,0,1,0.2,1c0.3-0.3,0.4-0.6,0.6-1c-0.3,0.7-0.1,0.7-0.4,1.2c0.3,0,0.4,0,1-0.4
						c0.1-0.3,0.1-0.4,0.2-0.7c0.1-0.1,0,0.4-0.2,0.7l0,0.1c0.8-0.9,0,2.4,0.9,1.1l0,0.1l0.6-0.6c0.1,0.2-0.3,0.5-0.4,1
						c0.8-1,0.5,0.4,1.1-0.3c-0.6,2.2,0.8,0.2,0.5,1.6l0.2-0.5c0.3-0.5,0,0.3,0,0.4c0.2-0.4,0.1-0.5,0.3-0.7
						c0.8-0.4,0.9,1.2,1.3,1.9c0.2,0.2,1.3-2.5,1-1.2l-0.5,0.9c0.9-0.9,0.9,0.4,1.7-0.3c-0.1,0.2-0.3,0.5-0.3,0.4
						c-0.2,0.7,0.3,0.2,0.6-0.3c0,0.1-0.2,0.5-0.3,0.8c-0.1,0.4,0.6-0.7,0.4-0.1c0,0.1-0.1,0.2-0.2,0.2c0.2-0.3,0.2,0.2,0.5-0.6
						c0,0.4,0.5-0.2,0.4,0.3c0.5-0.8,0.1,0.5,0.7-0.6c-0.6,1.2-0.2,1.1,0.2,0.6c-0.2,0.4-0.1,0.4-0.4,0.9c0.1,0,0.3-0.1,0.6-0.8
						c-0.5,1.6,1-1,0.2,1c0.7-0.5,1.2-0.8,1.7-0.9c-0.6,1.2-0.4-0.1-1,1.2c0.5-0.4,1.2-1.3,1.4-0.9c0,0.2-0.3,0.5-0.4,0.7
						c0.5-0.4,0.5,0.4,1.1-0.1c-0.1,0.1-0.1,0.2-0.2,0.3c0.1,0,0,0.2,0.3-0.3l-0.1,0.1c0.3-0.8,1-1.6,1.3-2
						c-0.9,1.5,0.1,0.5-1.1,2.5c0.1-0.1,0.3-0.3,0.4-0.7c0,0.1-0.1,0.4-0.4,0.7c0.3-0.2,0.6-0.8,0.7-0.7c-0.1,0.3-0.2,0.4-0.4,0.7
						c0.3-0.5,0.7-1,0.7-0.7c-0.1,0.2-0.2,0.4-0.2,0.3c0.3,0,1.1-1.2,1.1-0.5c-0.7,1.1-0.1,0.4-0.6,1.4l0.3-0.2l0.2-0.5
						c0.1,0.1,0.6-0.6,0.5-0.2l-0.3,0.4l0.3-0.1l0.1-0.4c0.4-0.5,0.6-1.3,0.6-0.9c-0.1,0.1,0.1,0.1-0.1,0.7l0,0
						c0.2-0.3,0.5-0.6,0.4-0.3c-0.1,0.3-0.6,1.1-0.7,1.3c0.5-0.8,0.4-0.1,0.9-0.9c-0.1,0.2-0.4,0.7-0.4,0.8l0.4-0.7
						c0,0.2-0.1,0.4-0.3,0.8c0.1,0.2,0.6-1.3,0.5-0.6c0,0-0.1,0.2-0.2,0.2c0.1,0.4,0.6-0.2,0.7,0.2c-0.4,1-0.3,0.2-0.6,1
						c0.4,0,1.2-0.9,1.4-0.5l0-0.1c0.7-1.4-0.1,0.8,0.3,0.2c-0.1,0.1-0.4,0.8-0.3,0.6c0.1,0.3,0.6-0.2,1.1-0.5l-0.2,0.4
						c0,0.4,0.2,0.3,0.2,0.6c0.2-0.3,0.3-0.3,0.5-0.8c-0.6,2.3,1.3-0.8,0.8,1.1c0,0-0.2,0.3-0.2,0.3l0.4-0.2
						c0.3-0.6,0.1-0.4,0.3-0.9c0.2-0.4,0.4-0.6,0.5-0.6c-0.3,0.4-0.5,1-0.6,1.4c0.1-0.2,0.2-0.4,0.3-0.6c-0.4,1.2,0.6-1.3,0.5-0.4
						l-0.2,0.3c0.2-0.1,0.4-0.5,0.5-0.4c-0.3,0.7-0.2,0.3-0.5,0.9c0.1,0,0.9-1.3,0.6-0.5c-0.1,0.2-0.2,0.1-0.4,0.3
						c-0.3,0.9-0.2,0.7-0.1,0.9l0,0l0,0.5l0.1-0.3c1-1.8,0.5-0.2,1.2-1.4c-0.7,1.1-0.3,0.7-0.7,1.5c-0.1,0.3-0.1,0.5-0.2,0.8
						c0.4-0.6-0.1,0.6,0.5-0.3c-0.1,0.3,0.1,0.1-0.2,0.7c0.2-0.2,0.2-0.5,0.3-0.8c0.6-0.8-0.1,1.3,0.8,0.2c0.5-0.4,0.9-1.3,1.3-1.7
						c-0.1,0.5-0.5,1-0.5,1c-0.1,0.4,0.1,0.4,0.3,0.2c-0.1,0.2-0.2,0.4-0.3,0.8c0.1,0,0.5-1,0.4-0.5c-0.1,0.3-0.4,0.8-0.6,1
						c0.2-0.2,0.5-0.7,0.7-0.9c-0.2,0.5-0.4,0.7-0.5,1c0.2-0.2,0.5-0.3,0.9-1l0-0.3c0.1,0-0.2,0.6-0.3,0.8c-0.4,0.5,0-0.3,0.1-0.6
						l0.2-0.1c0.6-1.6-0.4,0.1-0.5,0l0.6-1.1l-0.6,0.9c0.1-0.3,0.3-1,0.5-1.1c0.1-0.6-0.3,0.4-0.1-0.3c0-0.1,0.1-0.2,0.1-0.2
						l-0.3,0.3c0.1-0.2,0.3-0.8,0.3-0.6c0.1-0.7-0.7,0.7-0.4-0.2l0-0.1c-0.4,0.3-0.4,0.8-1,1.7l0.8-2.1l-0.4,0.8c0,0,0-0.1,0.1-0.5
						c-0.4,0.5-0.1,0.4-0.4,0.9c0.2-0.8-0.5,0.2,0-1.2c-0.3,0.6-0.1,0.5-0.4,0.9c0.6-1.4-0.3,0.2-0.1-0.5c0.4-0.7,0.3-0.3,0.5-1
						c-0.6,1.2-0.1-0.4-0.3-0.2c-0.5,1-0.4,0.3-0.7,0.6c0.2-0.3-0.1-0.7-0.1-1.1l0.1-0.2c-0.5,1-0.6,0.7-0.8,0.9
						c0.3-0.6,0.4-0.8,0.6-1.1l-0.1,0c-0.2,0.3-0.3,0.5-0.4,0.5l0.4-0.7c-0.2,0-0.7,0.7-0.7,0.2c-0.3,0.7-0.8,2-1.2,2.4
						c0.2-0.4,0.5-1,0.6-1.2c0,0-0.2,0.3-0.2,0.1l0.4-0.6c0-0.3-0.3,0.5-0.3,0.4c0.3-0.5,0.1-0.4,0.3-0.8c0,0,0,0.2,0.1,0.1
						c0-0.1,0-0.5,0.2-0.9c-0.1,0.3-0.3,0.7-0.4,0.8c-0.2,0,0.3-0.7,0.3-1c-0.2,0.4-0.1-0.1-0.5,0.7c0,0,0.1-0.4,0.2-0.6
						c-0.2,0.3-0.4-0.1-0.7,0.8l0,0.1c0,0,0,0,0,0l0,0l0,0c-0.6,0.7-0.3-0.7-0.7-0.5l0.1-0.3c-0.3,0.2-0.4,0-0.8,0.5
						c0,0,0.1-0.5,0.3-0.8c-0.2,0.1-0.4,0.4-0.3-0.1c0.3-0.4,0.2-0.4,0.3-0.3c0-0.3,0.1-0.7-0.4-0.1c0.4-0.7,0.3-0.9,0.1-0.7
						l-0.1,0.5c-0.1,0.1-0.2,0-0.2-0.1l0.5-0.9c0.2-1.2-1.5,1.6-0.8-0.3c-0.4,0.6-0.1,0.5-0.5,1.2c-0.1-0.2,0.4-1.5,0.4-1.6
						c0.1-0.6-0.8,1.2-0.9,0.8c-0.1,0.3-0.5,1.2-0.8,1.4c-0.1-0.2,0.5-1.4,0.7-1.6c0,0,0,0.1,0,0.2c0.1-0.1,0.2-0.2,0.3-0.6
						l-0.2,0.3c0.1-0.4-0.1-0.4,0.2-0.9c-0.3,0.3-0.3,0.5-0.3,0.7c0.1-0.5-0.3-0.2-0.3-0.6c-0.1,0.2-0.2,0.6-0.2,0.6
						c-0.1-0.5-0.4,0.5-0.7,0.6c0.1-0.5,0.6-1.1,0.2-0.8c0.1-0.4,0.4-0.9,0.6-1.1c-0.5,0.5-0.1-0.6-0.1-0.7l0.2-0.2
						c-0.1,0.1-0.2,0.1-0.2,0.1l-0.3,0.7c0-0.1,0-0.2,0.1-0.4c-0.3,0.4-0.5,1.1-0.9,1.6c0.1-0.4-0.4,0.2,0-0.6
						c0.1,0.4,0.4-0.9,0.6-0.9c-0.1,0.1-0.1,0.1-0.1-0.1c0-0.1,0.1-0.2,0.1-0.2c0.2-0.9-0.6,0.9-0.8,0.8c0.3-0.5,0.4-0.9,0.3-0.8
						c0.1,0.1-0.4,0.8-0.6,1.1c0-0.4-0.3,0.2-0.3,0.1l0,0.2c-0.3,0.5-0.3,0.4-0.5,0.5c0.2-0.4,0.2-0.2,0.3-0.4
						c-0.5,0.8,0.2-1-0.2-0.5c0.1-0.4,0.4-0.9,0.5-1.1c-0.5,0.5,0.1-0.7-0.3-0.3c-0.3,0.7-0.2,0.5-0.6,1.1l0.5-0.3l-0.6,0.8
						c0.1,0.1,0.4-0.3,0.4-0.2c-0.3,0.5-0.3,0.3-0.5,0.9c0.4-1-0.5,0.4-0.3-0.3l0.8-1.6c0.1-0.8-0.8,0.6-0.8,0.1l0,0.3
						c-0.3,0.6-0.2,0-0.4,0.2c0.3-0.5,0.3-0.7,0.4-1.1c-0.2,0.4-0.2-0.1-0.7,0.9l0.2-0.8c-0.1-0.4-1,1.4-1.1,1.1
						c0.3-0.5,0.4-1,0.8-1.3c-0.1,0-0.1-0.2-0.3,0.2c0.1-0.4-0.5,0.6-0.4,0.1c-0.1,0.2-0.4,0.8-0.5,0.7c0-0.1,0.1-0.3,0.1-0.3
						c-0.1,0.3-0.3,0.3-0.5,0.9c0.6-1.8-0.7-0.2-0.2-1.7c-0.2,0.1-0.5,0.2-0.7,0.2c0.1-0.2,0.1-0.3,0.1-0.2c0-0.6-0.8,1.5-0.8,0.8
						c0.3-0.9,0.3-0.4,0.4-0.8c0.8-1.8-0.4,0.1,0-1l0.1-0.1c0.2-0.7-0.6,0.5-0.7,0.3c0,0,0.1-0.2,0.1-0.3c-0.5,0.8-0.9,1-1.2,1.2
						c0.4-0.7,0.2-0.3,0.5-1c-0.1,0.1-0.5,1.1-0.7,1.3c0.1-0.4,0.2-0.8,0.5-1.5l0.2,0c0.4-1-0.2-0.1-0.2-0.3l0.2-0.4
						c-0.3,0-0.8,1.1-1,0.9l-0.1,0.3c-0.6,1,0.2-0.6-0.3,0.1l0.4-1.1c-0.2,0.2-0.8,0.9-1,1c0.4-0.8,0.8-1.1,1.1-1.5
						c-0.1,0-0.3-0.1-0.6,0.5c0.1-0.1,0.2-0.3,0.2-0.2c-0.5,0.8-0.8,1.2-1,1.1c0.9-2.1-0.2-0.7,0.3-2.4c-0.6,0.6-0.5-0.6-0.9-0.6
						c-0.5,1.7-0.1,0-0.8,1.7c-0.1,0.1-0.1,0-0.1-0.1l0.2-1.1c0.1-0.5,0.2-0.3,0.4-0.7c-0.1-0.2,0.2-0.8,0.3-1.2
						c-0.2,0.6-0.4,0.8-0.4,0.6l-0.2,0.8c-0.6,0.8,0.4-1.5-0.2-0.7l0.3-0.5c-0.3,0.3-0.4-0.2-1.2,1.1c0.1-0.2,0.2-0.7,0.3-0.8
						c-0.2-0.3-1.3,1.1-1.2,0.2l0.2-0.4c-0.1,0.1-0.5,0.7-0.3,0.3c0.1-0.2,0.2-0.4,0.2-0.4c-0.1,0.1-0.5,0.6-0.4,0.4l0.3-0.4
						c0-0.7-1,0.9-1.4,1.1c0.6-1.2,0.5-1.7,0.5-1.9l0.1-0.2c-0.3-0.3-1.1,0.7-1.6,1c0.5-1.4-0.3-0.9-0.2-1.7c-0.1,0.2-0.5,0.9-0.6,1
						c0.1-0.3-0.6,0.7,0-0.4l0,0c0.5-1.1,0.2-0.9,0.1-1l-0.8,1.4c0.9-2.2-1.2,0.3-0.3-1.6c-0.3,0.3-0.4,0.2-0.6,0.5l0.4-0.7
						c-0.1-0.3-0.1-0.5-0.5-0.4l0.4-0.5c-0.1-0.1-1.4,2-1.6,2l0.6-1.1c-0.3-0.1,0-1.3-0.8-0.4c0.1-0.2,0.3-0.5,0.4-0.5
						c-0.1-0.1-0.1-1-0.9,0.5c0.6-1-0.2-0.3-0.6,0.1l0.4-0.7c-0.7,0.9-0.8,1.1-1.1,1.3c0-0.1,0.3-0.6,0.2-0.4
						c0.1-0.5-0.5,0.6-0.4,0.2l0.3-0.4c-0.1-0.1-0.2,0.1-0.6,0.6c-0.2,0.2-0.2-0.3,0.2-1c-0.2,0.4-0.6,0.9-0.6,0.7
						c0.1-0.3,0.2-0.4,0.3-0.5c0-0.6-0.8,0.7-0.6-0.1c0.1-0.2,0.2-0.4,0.2-0.5c0.2,0.1,0.3,0.2,0.3,0.3c0.4-0.7,0.3-0.9,0.9-1.8
						c-0.4,0.4-1.2,1.5-1.2,1.1c0-0.1,0.1-0.1,0.1-0.2l0.1-0.1c0-0.1-0.1,0-0.2,0.1c0-0.1,0-0.2,0-0.3c0.3-0.6,0-0.4-0.1-0.5
						c-0.4,0.8-0.4,0.6-0.6,1.3c0-0.1,0.1-0.1,0.1-0.1c0,0,0,0,0.1-0.1l0,0.1c0.1,0,0.1,0,0.2,0c-0.2,0.4-0.5,0.7-0.4,0.2
						c-0.3,0.5-0.6,1-0.7,1.2c0.4-1.1,0.4-1.8,0.7-2.5c-0.4,0.3-0.7,0-1.5,1.4c-0.1,0.2,0.1-0.5,0.2-0.7c0.1-0.1,0.1-0.1,0.3-0.3
						c-0.3,0.3-0.5,0-0.9,1c0-0.5,0.5-0.9,0.2-0.8l0.2-0.3c0.1-1.9-1.8,2.4-1.5,0c0,0.1,0,0.2-0.1,0.4c-0.3-1.2-1.5,0.5-1.7-1.2
						c-0.1-0.4-0.3,0.3-0.5,0.8l0.2-0.9l-0.4,1c-0.4,0.7,0-2.3-0.6-0.9l-0.1,0.6c-0.1-0.1-0.4,0.3-0.3-0.4c0,0.1-0.2,0.6-0.1,0.3
						l0.1-0.5l-0.4,0.7c-0.2-0.4,0.4-1.8,0-2c-0.2,0.2-0.6,1.3-0.6,1.6c0,0,0.1,0.3,0,0.8l-0.1,0.2c-0.2,1.4-0.5,2.8-0.5,3.8
						l0.3-0.8l-0.1,0.7l-0.1,0c0,0.6,0.1,0.1,0.2-0.3c-0.1,0.4-0.1,0.6-0.1,0.7l0.4-1.3c-0.1,0.5-0.3,1.1-0.2,1.4
						c0.2-0.6,0.2-1.2,0.4-1.6c0,0.6-0.2,1.1,0,0.6c-0.1,0.4-0.1,0.6-0.2,0.7c0.2-0.4,0.2-0.1,0.4-0.9c-0.1,0.8,0.3-0.1,0,1.1
						c0.1-0.3,0.4-1,0.5-1c-0.5,1.5,0.3,0.2-0.2,1.8c0.4-1.4,0.5-0.5,0.9-1.2c0,0.1-0.1,0.3-0.1,0.2c0.1,0.1,0,0.6,0,0.8
						c0.3-1.1,0.5-1.3,0.8-2c-0.2,1.1-0.5,1.3-0.7,2.4c0.3-0.9,0.5-0.9,0.6-1.6c-0.1,0.7,0,0.3-0.3,1.3c0.4-1.4,0.2-0.2,0.5-1.1
						c-0.1,0.7-0.4,1.3-0.1,0.9C134.2,95.9,133.9,96.4,133.9,96.4z M138.1,95.3C138.1,95.3,138.1,95.3,138.1,95.3
						C138.1,95.3,138,95.3,138.1,95.3C138,95.3,138.1,95.3,138.1,95.3z M138.4,95.4c0,0-0.1-0.1-0.1-0.1c0.1-0.3,0.3-0.5,0.3-0.5
						C138.5,95,138.5,95.2,138.4,95.4z M140.3,89.9c0.1-0.1,0.1,0.1,0,0.2c0,0-0.1,0-0.1,0c0,0,0,0.1-0.1,0.1
						C140.2,90.1,140.3,90,140.3,89.9z"/>
					<path class="st2" d="M139.7,90.8C139.7,90.8,139.7,90.9,139.7,90.8c-0.1,0.1-0.1,0.2-0.1,0.2C139.7,91,139.7,90.9,139.7,90.8
						L139.7,90.8z"/>
					<path class="st2" d="M166.9,105.6L166.9,105.6C166.9,105.6,166.9,105.6,166.9,105.6C166.9,105.6,166.9,105.6,166.9,105.6z"/>
					<polygon class="st2" points="141.5,99.1 141.6,98.9 141.5,99 					"/>
					<path class="st2" d="M167.3,109c0,0.1-0.1,0.1-0.1,0.2C167.3,109.2,167.3,109.1,167.3,109z"/>
					<path class="st2" d="M168,109.5l0,0.3C168,109.7,168,109.6,168,109.5z"/>
					<path class="st2" d="M168.4,110.2c0.1-0.1,0.1-0.2,0.2-0.3l0,0L168.4,110.2z"/>
					<path class="st2" d="M159,106.7C159,106.7,159,106.7,159,106.7C158.8,106.8,158.9,106.8,159,106.7z"/>
					<path class="st2" d="M162.5,106.2c-0.1,0.1-0.2,0.2-0.3,0.3C162.3,106.6,162.3,106.7,162.5,106.2z"/>
					<path class="st2" d="M155.6,106.2L155.6,106.2C155.6,106.2,155.6,106.1,155.6,106.2L155.6,106.2z"/>
					<path class="st2" d="M162.1,106.5c0,0.2,0,0.2,0.1,0.1C162.2,106.5,162.2,106.4,162.1,106.5z"/>
					<path class="st2" d="M170.8,111.6L170.8,111.6C170.8,111.6,170.8,111.6,170.8,111.6L170.8,111.6z"/>
					<path class="st2" d="M170.9,111.6L170.9,111.6C170.9,111.5,170.9,111.5,170.9,111.6z"/>
					<path class="st2" d="M171.1,111.3l-0.1,0.2C170.9,111.5,171,111.5,171.1,111.3z"/>
					<path class="st2" d="M170.1,110.9l-0.1,0.3C170,111.2,170.1,111.1,170.1,110.9z"/>
					<path class="st2" d="M169.9,110.9c0,0.1-0.1,0.7,0,0.5l0.1-0.2C169.8,111.6,170.1,110.5,169.9,110.9z"/>
					<path class="st2" d="M170.4,107l0.1,0.3c0.1-0.3,0.2-0.7,0.4-0.8C171.1,105.6,170.6,107.3,170.4,107z"/>
					<path class="st2" d="M170.1,106.3c0.2-0.1,0.2-0.4,0.3-0.6C170.2,106,170.1,106.1,170.1,106.3z"/>
					<path class="st2" d="M165.9,104.3l0.3-0.7C166.1,103.7,166.1,103.9,165.9,104.3z"/>
					<polygon class="st2" points="163.3,107.5 163.2,108 163.5,107.4 					"/>
					<polygon class="st2" points="165.2,102.4 165.3,102.3 165.1,102.5 					"/>
					<path class="st2" d="M158,99.1l-0.4,0.9C157.8,99.8,158.2,98.9,158,99.1z"/>
					<path class="st2" d="M154.5,98.5c0.2-0.4,0.2-0.8-0.1-0.4C154.4,98.2,154.4,98.6,154.5,98.5z"/>
					<polygon class="st2" points="146.1,93 146.4,92.8 146.1,92.9 					"/>
				</g>
			</g>
		</g>
	</g>
</g>
</svg>
