<?xml version="1.0" encoding="utf-8"?>
<!-- Generator: Adobe Illustrator 22.0.0, SVG Export Plug-In . SVG Version: 6.00 Build 0)  -->
<svg version="1.1" id="Calque_1" xmlns="http://www.w3.org/2000/svg" xmlns:xlink="http://www.w3.org/1999/xlink" x="0px" y="0px"
	 viewBox="0 0 496 335" style="enable-background:new 0 0 496 335;" xml:space="preserve">
<style type="text/css">
	.st0{fill:none;stroke:#FFE9A4;stroke-width:5;stroke-linecap:round;stroke-miterlimit:10;}
	.st1{fill:none;stroke:#FFE9A4;stroke-width:3;stroke-linecap:round;stroke-miterlimit:10;}
	.st2{fill:url(#SVGID_1_);}
	.st3{fill:#FFFFFF;}
</style>
<g>
	<line class="st0" x1="327.5" y1="329.5" x2="202.5" y2="8.5"/>
	<line class="st0" x1="97.5" y1="6.5" x2="202.5" y2="8.5"/>
	<line class="st0" x1="200.5" y1="300.5" x2="282.5" y2="213.5"/>
	<line class="st0" x1="487.5" y1="139.5" x2="282.5" y2="213.5"/>
	<line class="st0" x1="86.5" y1="168.5" x2="173.5" y2="171.5"/>
	<line class="st0" x1="282.5" y1="213.5" x2="173.5" y2="171.5"/>
	<line class="st0" x1="7.5" y1="302.5" x2="200.5" y2="300.5"/>
	<line class="st1" x1="173.5" y1="171.5" x2="80.5" y2="302.5"/>
	<line class="st1" x1="246.5" y1="251.5" x2="253.5" y2="139.5"/>
	<line class="st1" x1="202.5" y1="8.5" x2="173.5" y2="171.5"/>
	<line class="st1" x1="246.5" y1="251.5" x2="173.5" y2="171.5"/>
	<line class="st1" x1="96.5" y1="301.5" x2="246.5" y2="251.5"/>
	<line class="st1" x1="214.5" y1="285.5" x2="301.5" y2="263.5"/>
	<line class="st1" x1="246.5" y1="251.5" x2="301.5" y2="263.5"/>
	<line class="st1" x1="421.5" y1="163.5" x2="301.5" y2="263.5"/>
	<line class="st1" x1="332.5" y1="195.5" x2="298.5" y2="254.5"/>
	<line class="st1" x1="202.5" y1="8.5" x2="377.5" y2="179.5"/>
	<line class="st1" x1="256.5" y1="148.5" x2="186.5" y2="176.5"/>
</g>
<g>
	
		<linearGradient id="SVGID_1_" gradientUnits="userSpaceOnUse" x1="306.9588" y1="93.5" x2="306.9588" y2="231.5" gradientTransform="matrix(1 0 0 -1 0 336)">
		<stop  offset="4.150707e-07" style="stop-color:#F4D3F4"/>
		<stop  offset="0.2037" style="stop-color:#F4D2F0"/>
		<stop  offset="0.394" style="stop-color:#F6D0E5"/>
		<stop  offset="0.5788" style="stop-color:#F7CCD2"/>
		<stop  offset="0.7604" style="stop-color:#FAC7B8;stop-opacity:0.8"/>
		<stop  offset="0.9381" style="stop-color:#FEC196;stop-opacity:0.8"/>
		<stop  offset="1" style="stop-color:#FFBE88;stop-opacity:0.8"/>
	</linearGradient>
	<path class="st2" d="M370.9,242.5h-131c-1.1,0-1.9-0.9-1.9-1.9V106.4c0-1.1,0.9-1.9,1.9-1.9H374c1.1,0,1.9,0.9,1.9,1.9v130.7
		C375.9,242.5,375.9,242.5,370.9,242.5z"/>
	<path class="st3" d="M356.6,153.6L307,121.5l-49.7,32c-1.2,0.8-0.7,2.8,0.9,2.8h7V223c0,1.3,1.1,2.4,2.4,2.4h78.7
		c1.3,0,2.4-1.1,2.4-2.4v-66.7h7C357.3,156.3,357.9,154.4,356.6,153.6z M293.6,212.4h-15.9v-17.4h16L293.6,212.4L293.6,212.4z
		 M293.6,170.8v13h-16v-13c0,0-0.5-7.3,8.3-7.3C294.7,163.5,293.6,170.8,293.6,170.8z M314.9,212.4h-16v-17.4h16V212.4z
		 M314.9,170.8v13h-16v-13c0,0-0.5-7.3,8.3-7.3C316,163.5,314.9,170.8,314.9,170.8z M336.2,212.4h-15.9v-17.4h16L336.2,212.4
		L336.2,212.4z M336.2,170.8v13h-16v-13c0,0-0.5-7.3,8.3-7.3C337.2,163.5,336.2,170.8,336.2,170.8z M306.9,137
		c3.2,0,5.8,2.6,5.8,5.8s-2.6,5.8-5.8,5.8s-5.8-2.6-5.8-5.8C301.2,139.5,303.8,137,306.9,137z"/>
</g>
</svg>
